# This file uses centimeters as units for non-parametric coordinates.

mtllib Rock2.mtl
g default
v -0.917328 -0.357593 0.712452
v 0.917328 -0.357593 0.712452
v -0.917328 0.357593 0.712452
v 0.917328 0.357593 0.712452
v -0.917328 0.357593 -0.712452
v 0.917328 0.357593 -0.712452
v -0.917328 -0.357593 -0.712452
v 0.917328 -0.357593 -0.712452
v 0.008281 0.357593 -1.035999
v 0.008281 -0.357593 -1.035999
v 0.008281 -0.357593 1.035999
v 0.008281 0.357593 1.035999
vt 0.735417 0.078527
vt 0.862602 0.034093
vt 0.862602 0.034093
vt 0.735417 0.078527
vt 0.862602 0.318648
vt 0.735417 0.274214
vt 0.862602 0.318648
vt 0.735417 0.274215
vt 0.987512 0.078527
vt 0.987512 0.274215
vt 0.987512 0.274214
vt 0.987512 0.078527
vn -0.329973 0.000000 0.943991
vn 0.000000 0.000000 1.000000
vn 0.000000 0.000000 1.000000
vn -0.329973 0.000000 0.943991
vn 0.000000 1.000000 0.000000
vn 0.000000 1.000000 0.000000
vn 0.000000 1.000000 0.000000
vn 0.000000 1.000000 0.000000
vn -0.329973 0.000000 -0.943991
vn 0.000000 0.000000 -1.000000
vn 0.000000 0.000000 -1.000000
vn -0.329973 0.000000 -0.943991
vn 0.000000 -1.000000 0.000000
vn 0.000000 -1.000000 0.000000
vn 0.000000 -1.000000 0.000000
vn 0.000000 -1.000000 0.000000
vn 1.000000 0.000000 0.000000
vn 1.000000 0.000000 0.000000
vn 1.000000 0.000000 0.000000
vn 1.000000 0.000000 0.000000
vn -1.000000 0.000000 0.000000
vn -1.000000 0.000000 0.000000
vn -1.000000 0.000000 0.000000
vn -1.000000 0.000000 0.000000
vn 0.335314 0.000000 -0.942107
vn 0.335314 0.000000 -0.942107
vn 0.000000 -1.000000 0.000000
vn 0.000000 -1.000000 0.000000
vn 0.335314 0.000000 0.942107
vn 0.335314 0.000000 0.942107
vn 0.000000 1.000000 0.000000
vn 0.000000 1.000000 0.000000
s 1
g polySurface53
usemtl Rock_3:lambert4SG
f 1/1/1 11/2/2 12/3/3 3/4/4
s 2
f 3/4/5 12/3/6 9/5/7 5/6/8
s 3
f 5/6/9 9/5/10 10/7/11 7/8/12
s 4
f 7/8/13 10/7/14 11/2/15 1/1/16
s off
f 2/9/17 8/10/18 6/11/19 4/12/20
f 7/8/21 1/1/22 3/4/23 5/6/24
s 3
f 9/5/10 6/11/25 8/10/26 10/7/11
s 4
f 11/2/15 10/7/14 8/10/27 2/9/28
s 1
f 12/3/3 11/2/2 2/9/29 4/12/30
s 2
f 9/5/7 12/3/6 4/12/31 6/11/32
