# Blender v2.76 (sub 0) OBJ File: ''
# www.blender.org
mtllib enchantingtable.mtl
o Mesh1_book1_Model
v 0.102395 0.012655 0.061161
v -0.086800 0.213911 0.038628
v 0.086800 -0.000000 0.038627
v -0.071206 0.226566 0.061161
v -0.021014 0.267301 0.291187
v 0.152587 0.053390 0.291187
v 0.124061 0.030239 0.053319
v 0.174253 0.070973 0.283345
v 0.165389 0.076060 0.268744
v 0.118028 0.037624 0.053111
v 0.093784 0.017948 0.038446
v 0.099886 0.010619 0.038628
v 0.086800 0.000000 -0.038628
v 0.099886 0.010619 -0.038627
v 0.102395 0.012656 -0.067932
v 0.124061 0.030239 -0.060090
v 0.093539 0.017750 -0.038082
v 0.117772 0.037416 -0.059969
v 0.164908 0.075669 -0.275141
v 0.174254 0.070973 -0.290116
v 0.152587 0.053390 -0.297957
v -0.071206 0.226566 -0.067932
v -0.021013 0.267301 -0.297958
v -0.049540 0.244150 -0.060090
v 0.000653 0.284884 -0.290116
v 0.006415 0.270964 -0.275141
v -0.040721 0.232710 -0.059969
v -0.073716 0.224530 -0.038627
v -0.064954 0.213045 -0.038082
v -0.064709 0.213243 0.038446
v -0.073716 0.224530 0.038628
v -0.086800 0.213911 -0.038627
v -0.049540 0.244150 0.053319
v -0.040465 0.232919 0.053110
v -0.034761 0.237548 0.012860
v -0.051795 0.223724 -0.003011
v 0.123732 0.042253 0.012861
v 0.106698 0.028429 -0.003011
v 0.150450 0.063936 0.040807
v 0.173710 0.082813 0.261792
v 0.015217 0.278108 0.261792
v -0.008043 0.259231 0.040807
v 0.006896 0.271355 0.268744
v 0.000653 0.284884 0.283345
v 0.123428 0.042006 -0.018305
v -0.035066 0.237301 -0.018306
v 0.150194 0.063728 -0.045741
v -0.008299 0.259023 -0.045741
v 0.173229 0.082422 -0.258256
v 0.014736 0.277717 -0.258256
vt 0.097656 0.378906
vt 0.062500 0.332031
vt 0.062500 0.324219
vt 0.093750 0.378906
vt 0.101562 0.382812
vt 0.105469 0.382812
vt 0.062500 0.433594
vt 0.054688 0.429688
vt 0.058594 0.414062
vt 0.054688 0.414062
vt 0.113281 0.351562
vt 0.097656 0.371094
vt 0.089844 0.367188
vt 0.121094 0.363281
vt 0.113281 0.421875
vt 0.113281 0.410156
vt 0.117188 0.410156
vt 0.109375 0.421875
vt 0.125000 0.468750
vt 0.128906 0.472656
vt 0.050781 0.433594
vt 0.062500 0.460938
vt 0.058594 0.464844
vt 0.054688 0.433594
vt 0.054688 0.425781
vt 0.058594 0.425781
vt 0.050781 0.402344
vt 0.046875 0.402344
vt 0.160156 0.894531
vt 0.000000 0.859375
vt 0.160156 0.859375
vt 0.000000 0.894531
vt 0.160156 0.898438
vt 0.000000 0.898438
vt 0.054688 0.371094
vt 0.074219 0.382812
vt 0.066406 0.386719
vt 0.039062 0.386719
vt 0.097656 0.437500
vt 0.093750 0.425781
vt 0.101562 0.417969
vt 0.082031 0.445312
vt 0.042969 0.398438
vt 0.039062 0.398438
vt 0.699219 0.535156
vt 0.707031 0.511719
vt 0.714844 0.527344
vt 0.691406 0.523438
vt 0.683594 0.535156
vt 0.675781 0.511719
vt 0.695312 0.523438
vt 0.667969 0.527344
vt 0.710938 0.554688
vt 0.683594 0.667969
vt 0.695312 0.667969
vt 0.683594 0.523438
vt 0.015625 0.371094
vt 0.023438 0.375000
vt 0.703125 0.511719
vt 0.695312 0.535156
vt 0.683594 0.671875
vt 0.695312 0.671875
vt 0.667969 0.550781
vt 0.000000 0.855469
vt 0.160156 0.855469
vt 0.160156 0.757812
vt 0.000000 0.757812
vt 0.035156 0.453125
vt 0.046875 0.460938
vt 0.125000 0.343750
vt 0.132812 0.351562
vt 0.000000 1.000000
vt 0.160156 1.000000
vt 0.042969 0.355469
vt 0.027344 0.375000
vt 0.679688 0.554688
vt 0.691406 0.683594
vt 0.679688 0.691406
vt 0.691406 0.550781
vt 0.671875 0.550781
vt 0.589844 0.550781
vt 0.589844 0.554688
vt 0.671875 0.558594
vt 0.585938 0.699219
vt 0.585938 0.558594
vt 0.671875 0.699219
vt 0.796875 0.550781
vt 0.796875 0.554688
vt 0.117188 0.347656
vt 0.027344 0.441406
vt 0.105469 0.339844
vt 0.035156 0.449219
vt 0.109375 0.460938
vt 0.097656 0.468750
vt 0.703125 0.554688
vt 0.703125 0.691406
vt 0.714844 0.558594
vt 0.714844 0.699219
vt 0.789062 0.558594
vt 0.789062 0.699219
vt 0.109375 0.453125
vt 0.039062 0.359375
vt 0.121094 0.445312
vt 0.050781 0.351562
vt 0.714844 0.550781
vn 0.762200 0.587800 -0.271200
vn 0.340200 0.256600 -0.904700
vn 0.630200 -0.776500 -0.000000
vn 0.630100 -0.776500 -0.000000
vn 0.446300 0.356000 0.821000
vn 0.734300 0.622400 0.270900
vn 0.756000 0.595900 0.271000
vn 0.756000 0.595800 0.271000
vn 0.441300 0.362200 0.821000
vn 0.788500 0.615000 -0.002000
vn 0.788500 0.615100 -0.002000
vn -0.776500 -0.630200 -0.000000
vn -0.640500 -0.519800 -0.565300
vn -0.630200 0.776500 -0.000000
vn -0.630100 0.776500 -0.000000
vn 0.324400 0.276200 -0.904700
vn 0.324400 0.276100 -0.904700
vn 0.422600 0.342900 0.838900
vn 0.753000 0.611100 -0.244200
vn 0.737600 0.618400 -0.271300
vn 0.757900 0.652300 -0.002000
vn 0.758000 0.652300 -0.002000
vn 0.655600 0.532000 -0.535900
vn 0.746300 0.605700 0.275900
vn -0.579700 -0.470400 0.665400
vn -0.747500 -0.606700 0.270500
vn -0.747500 -0.606700 -0.270500
vn 0.455100 0.369400 -0.810200
vn 0.769400 0.624400 -0.134300
vn 0.489500 0.397300 -0.776200
vn 0.210100 0.170500 0.962700
vn 0.449500 0.364800 0.815400
vn 0.483500 0.392400 0.782400
vn 0.769000 0.624100 0.138300
vn 0.210100 0.170500 -0.962700
usemtl texture
s 1
f 7/1/1 9/2/1 8/3/1
f 9/2/1 7/1/1 10/4/1
f 7/1/2 11/5/2 10/4/2
f 11/5/2 7/1/2 12/6/2
f 7/7/3 1/8/3 12/9/4
f 1/8/3 3/10/4 12/9/4
f 15/11/3 14/12/4 13/13/4
f 16/14/3 14/12/4 15/11/3
f 16/15/5 17/16/5 14/17/5
f 17/16/5 16/15/5 18/18/5
f 16/15/6 19/19/6 18/18/6
f 19/19/6 16/15/6 20/20/6
f 24/21/7 26/22/8 25/23/8
f 26/22/8 24/21/7 27/24/8
f 28/25/9 27/24/9 24/21/9
f 27/24/9 28/25/9 29/26/9
f 28/25/10 30/27/11 29/26/11
f 30/27/11 28/25/10 31/28/10
f 32/29/12 3/30/12 2/31/12
f 3/30/12 32/29/12 13/32/12
f 22/33/13 13/32/13 32/29/13
f 13/32/13 22/33/13 15/34/13
f 22/35/14 32/36/15 28/37/14
f 24/38/14 22/35/14 28/37/14
f 4/39/14 31/40/14 2/41/15
f 33/42/14 31/40/14 4/39/14
f 34/43/16 31/28/17 33/44/16
f 31/28/17 34/43/16 30/27/17
f 35/45/14 30/46/14 34/47/15
f 35/45/14 36/48/15 30/46/14
f 37/49/3 11/50/3 38/51/4
f 37/49/3 10/52/3 11/50/3
f 42/53/15 35/45/14 34/47/15
f 43/54/18 40/51/18 41/55/18
f 40/51/18 43/54/18 9/56/18
f 44/57/19 9/2/19 43/58/19
f 9/2/19 44/57/19 8/3/19
f 43/58/20 33/44/20 44/57/20
f 33/44/20 43/58/20 34/43/20
f 38/51/4 11/50/3 17/59/4
f 11/5/21 14/17/21 17/16/22
f 14/17/21 11/5/21 12/6/22
f 45/45/4 38/51/4 17/59/4
f 19/60/23 50/61/23 49/49/23
f 50/61/23 19/60/23 26/62/23
f 20/20/24 26/22/24 19/19/24
f 26/22/24 20/20/24 25/23/24
f 48/63/14 27/52/14 46/49/14
f 46/49/14 27/52/14 29/50/15
f 46/49/14 29/50/15 36/48/15
f 36/48/15 29/50/15 30/46/14
f 45/45/4 17/59/4 18/47/3
usemtl texture
f 1/64/25 2/31/25 3/30/25
f 2/31/25 1/64/25 4/65/25
f 1/64/26 5/66/26 4/65/26
f 5/66/26 1/64/26 6/67/26
f 7/7/3 6/68/3 1/8/3
f 6/68/3 7/7/3 8/69/3
f 13/13/4 12/9/4 3/10/4
f 12/9/4 13/13/4 14/12/4
f 16/14/3 21/70/4 20/71/4
f 21/70/4 16/14/3 15/11/3
f 22/33/27 21/72/27 15/34/27
f 21/72/27 22/33/27 23/73/27
f 24/38/14 23/74/15 22/35/14
f 23/74/15 24/38/14 25/75/15
f 32/36/15 31/40/14 28/37/14
f 31/40/14 32/36/15 2/41/15
f 37/76/28 36/77/28 35/78/28
f 36/77/28 37/76/28 38/79/28
f 39/80/3 10/52/3 37/49/3
f 39/80/3 9/81/3 10/52/3
f 9/81/3 39/80/3 40/82/3
f 39/83/29 41/84/29 40/85/29
f 41/84/29 39/83/29 42/86/29
f 39/83/30 35/78/30 42/86/30
f 35/78/30 39/83/30 37/76/30
f 43/87/15 42/53/15 34/47/15
f 42/53/15 43/87/15 41/88/15
f 5/89/31 8/90/31 44/91/31
f 8/90/31 5/89/31 6/92/31
f 33/42/14 5/93/15 44/94/15
f 5/93/15 33/42/14 4/39/14
f 45/95/32 36/77/32 38/79/32
f 36/77/32 45/95/32 46/96/32
f 47/97/33 46/96/33 45/95/33
f 46/96/33 47/97/33 48/98/33
f 49/99/34 48/98/34 47/97/34
f 48/98/34 49/99/34 50/100/34
f 25/101/35 20/102/35 23/103/35
f 23/103/35 20/102/35 21/104/35
f 26/81/15 48/63/14 50/82/15
f 48/63/14 26/81/15 27/52/14
f 47/105/3 19/87/3 49/88/3
f 19/87/3 47/105/3 18/47/3
f 47/105/3 45/45/4 18/47/3
