# This file uses centimeters as units for non-parametric coordinates.

mtllib Backpack.mtl
g default
v -0.641261 4.871709 -0.824216
v -0.213446 4.871709 -0.824216
v 0.214368 4.871709 -0.824216
v 0.642182 4.871709 -0.824216
v -0.641261 4.871709 -0.666184
v -0.213446 4.871709 -0.666184
v 0.214368 4.871709 -0.666184
v 0.642182 4.871709 -0.666184
v -0.641261 6.597228 -0.666184
v -0.213446 6.597228 -0.666184
v 0.214368 6.597228 -0.666184
v 0.642182 6.597228 -0.666184
v -0.641261 6.597228 -0.824216
v -0.213446 6.597228 -0.824216
v 0.214368 6.597228 -0.824216
v 0.642182 6.597228 -0.824216
v -0.213446 4.649053 -0.824216
v 0.214368 4.649053 -0.824216
v 0.214368 4.649053 -0.666184
v -0.213446 4.649053 -0.666184
v -0.213446 6.819884 -0.666184
v 0.214368 6.819884 -0.666184
v 0.214368 6.819884 -0.824216
v -0.213446 6.819884 -0.824216
v -0.896905 4.063828 -0.667166
v 0.883808 4.063828 -0.667166
v -0.896905 4.063828 0.717688
v 0.883808 4.063828 0.717688
v -0.896905 6.949805 0.717688
v 0.883808 6.949805 0.717688
v -0.896905 6.949805 -0.667166
v 0.883808 6.949805 -0.667166
v 0.885090 4.313118 -0.452757
v 1.440838 4.313118 -0.452757
v 0.885090 4.313118 0.524941
v 1.440838 4.313118 0.524941
v 0.885090 5.990958 0.524941
v 1.440838 5.990958 0.524941
v 0.885090 5.990958 -0.452757
v 1.440838 5.990958 -0.452757
v -1.455203 4.313118 -0.452757
v -0.899455 4.313118 -0.452757
v -1.455203 4.313118 0.524941
v -0.899455 4.313118 0.524941
v -1.455203 5.990958 0.524941
v -0.899455 5.990958 0.524941
v -1.455203 5.990958 -0.452757
v -0.899455 5.990958 -0.452757
vt 0.375000 0.000000
vt 0.458333 0.000000
vt 0.541667 0.000000
vt 0.625000 0.000000
vt 0.375000 0.250000
vt 0.458333 0.250000
vt 0.541667 0.250000
vt 0.625000 0.250000
vt 0.375000 0.500000
vt 0.458333 0.500000
vt 0.541667 0.500000
vt 0.625000 0.500000
vt 0.375000 0.750000
vt 0.458333 0.750000
vt 0.541667 0.750000
vt 0.625000 0.750000
vt 0.375000 1.000000
vt 0.458333 1.000000
vt 0.541667 1.000000
vt 0.625000 1.000000
vt 0.875000 0.000000
vt 0.875000 0.250000
vt 0.125000 0.000000
vt 0.125000 0.250000
vt 0.458333 0.000000
vt 0.541667 0.000000
vt 0.541667 0.250000
vt 0.458333 0.250000
vt 0.458333 0.500000
vt 0.541667 0.500000
vt 0.541667 0.750000
vt 0.458333 0.750000
vt 0.437500 0.687518
vt 0.562501 0.687518
vt 0.562501 0.750001
vt 0.437500 0.750001
vt 0.312499 0.687518
vt 0.312499 0.500025
vt 0.437500 0.500025
vt 0.437500 0.687518
vt 0.312499 0.687518
vt 0.437500 0.687518
vt 0.437500 0.750001
vt 0.312499 0.750001
vt 0.499999 0.687518
vt 0.499999 0.500025
vt 0.624997 0.500025
vt 0.624997 0.687518
vt 0.437500 0.687518
vt 0.437500 0.500025
vt 0.499999 0.500025
vt 0.499999 0.687518
vt 0.250001 0.687518
vt 0.250001 0.500025
vt 0.312499 0.500025
vt 0.312499 0.687518
vt 0.437500 0.687518
vt 0.562501 0.687518
vt 0.562501 0.750001
vt 0.437500 0.750001
vt 0.312499 0.687518
vt 0.312499 0.500025
vt 0.437500 0.500025
vt 0.437500 0.687518
vt 0.312499 0.687518
vt 0.437500 0.687518
vt 0.437500 0.750001
vt 0.312499 0.750001
vt 0.499999 0.687518
vt 0.499999 0.500025
vt 0.624997 0.500025
vt 0.624997 0.687518
vt 0.437500 0.687518
vt 0.437500 0.500025
vt 0.499999 0.500025
vt 0.499999 0.687518
vt 0.250001 0.687518
vt 0.250001 0.500025
vt 0.312499 0.500025
vt 0.312499 0.687518
vt 0.437500 0.687518
vt 0.562501 0.687518
vt 0.562501 0.750001
vt 0.437500 0.750001
vt 0.312499 0.687518
vt 0.312499 0.500025
vt 0.437500 0.500025
vt 0.437500 0.687518
vt 0.312499 0.687518
vt 0.437500 0.687518
vt 0.437500 0.750001
vt 0.312499 0.750001
vt 0.499999 0.687518
vt 0.499999 0.500025
vt 0.624997 0.500025
vt 0.624997 0.687518
vt 0.437500 0.687518
vt 0.437500 0.500025
vt 0.499999 0.500025
vt 0.499999 0.687518
vt 0.250001 0.687518
vt 0.250001 0.500025
vt 0.312499 0.500025
vt 0.312499 0.687518
vn 0.000000 -1.000000 0.000000
vn 0.000000 -1.000000 0.000000
vn 0.000000 -1.000000 0.000000
vn 0.000000 -1.000000 0.000000
vn 0.000000 -1.000000 0.000000
vn 0.000000 -1.000000 0.000000
vn 0.000000 -1.000000 0.000000
vn 0.000000 -1.000000 0.000000
vn 0.000000 -1.000000 0.000000
vn 0.000000 -1.000000 0.000000
vn 0.000000 -1.000000 0.000000
vn 0.000000 -1.000000 0.000000
vn 0.000000 0.000000 1.000000
vn 0.000000 0.000000 1.000000
vn 0.000000 0.000000 1.000000
vn 0.000000 0.000000 1.000000
vn 0.000000 0.000000 1.000000
vn 0.000000 0.000000 1.000000
vn 0.000000 0.000000 1.000000
vn 0.000000 0.000000 1.000000
vn 0.000000 1.000000 0.000000
vn 0.000000 1.000000 0.000000
vn 0.000000 1.000000 0.000000
vn 0.000000 1.000000 0.000000
vn 0.000000 1.000000 0.000000
vn 0.000000 1.000000 0.000000
vn 0.000000 1.000000 0.000000
vn 0.000000 1.000000 0.000000
vn 0.000000 1.000000 0.000000
vn 0.000000 1.000000 0.000000
vn 0.000000 1.000000 0.000000
vn 0.000000 1.000000 0.000000
vn 0.000000 0.000000 -1.000000
vn 0.000000 0.000000 -1.000000
vn 0.000000 0.000000 -1.000000
vn 0.000000 0.000000 -1.000000
vn 0.000000 0.000000 -1.000000
vn 0.000000 0.000000 -1.000000
vn 0.000000 0.000000 -1.000000
vn 0.000000 0.000000 -1.000000
vn 1.000000 0.000000 0.000000
vn 1.000000 0.000000 0.000000
vn 1.000000 0.000000 0.000000
vn 1.000000 0.000000 0.000000
vn -1.000000 0.000000 0.000000
vn -1.000000 0.000000 0.000000
vn -1.000000 0.000000 0.000000
vn -1.000000 0.000000 0.000000
vn 0.000000 0.000000 -1.000000
vn 0.000000 0.000000 -1.000000
vn 1.000000 0.000000 0.000000
vn 1.000000 0.000000 0.000000
vn 1.000000 0.000000 0.000000
vn 1.000000 0.000000 0.000000
vn 0.000000 0.000000 1.000000
vn 0.000000 0.000000 1.000000
vn -1.000000 0.000000 0.000000
vn -1.000000 0.000000 0.000000
vn -1.000000 0.000000 0.000000
vn -1.000000 0.000000 0.000000
vn 0.000000 0.000000 1.000000
vn 0.000000 0.000000 1.000000
vn 1.000000 0.000000 0.000000
vn 1.000000 0.000000 0.000000
vn 1.000000 0.000000 0.000000
vn 1.000000 0.000000 0.000000
vn 0.000000 0.000000 -1.000000
vn 0.000000 0.000000 -1.000000
vn -1.000000 0.000000 0.000000
vn -1.000000 0.000000 0.000000
vn -1.000000 0.000000 0.000000
vn -1.000000 0.000000 0.000000
vn 0.000000 -1.000000 0.000000
vn 0.000000 -1.000000 0.000000
vn 0.000000 -1.000000 0.000000
vn 0.000000 -1.000000 0.000000
vn 0.000000 0.000000 1.000000
vn 0.000000 0.000000 1.000000
vn 0.000000 0.000000 1.000000
vn 0.000000 0.000000 1.000000
vn 0.000000 1.000000 0.000000
vn 0.000000 1.000000 0.000000
vn 0.000000 1.000000 0.000000
vn 0.000000 1.000000 0.000000
vn 0.000000 0.000000 -1.000000
vn 0.000000 0.000000 -1.000000
vn 0.000000 0.000000 -1.000000
vn 0.000000 0.000000 -1.000000
vn 1.000000 0.000000 0.000000
vn 1.000000 0.000000 0.000000
vn 1.000000 0.000000 0.000000
vn 1.000000 0.000000 0.000000
vn -1.000000 0.000000 0.000000
vn -1.000000 0.000000 0.000000
vn -1.000000 0.000000 0.000000
vn -1.000000 0.000000 0.000000
vn 0.000000 -1.000000 0.000000
vn 0.000000 -1.000000 0.000000
vn 0.000000 -1.000000 0.000000
vn 0.000000 -1.000000 0.000000
vn 0.000000 0.000000 1.000000
vn 0.000000 0.000000 1.000000
vn 0.000000 0.000000 1.000000
vn 0.000000 0.000000 1.000000
vn 0.000000 1.000000 0.000000
vn 0.000000 1.000000 0.000000
vn 0.000000 1.000000 0.000000
vn 0.000000 1.000000 0.000000
vn 0.000000 0.000000 -1.000000
vn 0.000000 0.000000 -1.000000
vn 0.000000 0.000000 -1.000000
vn 0.000000 0.000000 -1.000000
vn 1.000000 0.000000 0.000000
vn 1.000000 0.000000 0.000000
vn 1.000000 0.000000 0.000000
vn 1.000000 0.000000 0.000000
vn -1.000000 0.000000 0.000000
vn -1.000000 0.000000 0.000000
vn -1.000000 0.000000 0.000000
vn -1.000000 0.000000 0.000000
vn 0.000000 -1.000000 0.000000
vn 0.000000 -1.000000 0.000000
vn 0.000000 -1.000000 0.000000
vn 0.000000 -1.000000 0.000000
vn 0.000000 0.000000 1.000000
vn 0.000000 0.000000 1.000000
vn 0.000000 0.000000 1.000000
vn 0.000000 0.000000 1.000000
vn 0.000000 1.000000 0.000000
vn 0.000000 1.000000 0.000000
vn 0.000000 1.000000 0.000000
vn 0.000000 1.000000 0.000000
vn 0.000000 0.000000 -1.000000
vn 0.000000 0.000000 -1.000000
vn 0.000000 0.000000 -1.000000
vn 0.000000 0.000000 -1.000000
vn 1.000000 0.000000 0.000000
vn 1.000000 0.000000 0.000000
vn 1.000000 0.000000 0.000000
vn 1.000000 0.000000 0.000000
vn -1.000000 0.000000 0.000000
vn -1.000000 0.000000 0.000000
vn -1.000000 0.000000 0.000000
vn -1.000000 0.000000 0.000000
s off
g polySurface50
usemtl lambert4SG
f 1/1/1 2/2/2 6/6/3 5/5/4
f 17/25/5 18/26/6 19/27/7 20/28/8
f 3/3/9 4/4/10 8/8/11 7/7/12
s 1
f 5/5/13 6/6/14 10/10/15 9/9/16
f 6/6/14 7/7/17 11/11/18 10/10/15
f 7/7/17 8/8/19 12/12/20 11/11/18
s off
f 9/9/21 10/10/22 14/14/23 13/13/24
f 21/29/25 22/30/26 23/31/27 24/32/28
f 11/11/29 12/12/30 16/16/31 15/15/32
s 2
f 13/13/33 14/14/34 2/18/35 1/17/36
f 14/14/34 15/15/37 3/19/38 2/18/35
f 15/15/37 16/16/39 4/20/40 3/19/38
s off
f 4/4/41 16/21/42 12/22/43 8/8/44
f 13/23/45 1/1/46 5/5/47 9/24/48
s 2
f 2/2/35 3/3/38 18/26/49 17/25/50
s off
f 3/3/51 7/7/52 19/27/53 18/26/54
s 1
f 7/7/17 6/6/14 20/28/55 19/27/56
s off
f 6/6/57 2/2/58 17/25/59 20/28/60
s 1
f 10/10/15 11/11/18 22/30/61 21/29/62
s off
f 11/11/63 15/15/64 23/31/65 22/30/66
s 2
f 15/15/37 14/14/34 24/32/67 23/31/68
s off
f 14/14/69 10/10/70 21/29/71 24/32/72
f 25/33/73 26/34/74 28/35/75 27/36/76
f 29/37/77 27/38/78 28/39/79 30/40/80
f 29/41/81 30/42/82 32/43/83 31/44/84
f 32/45/85 26/46/86 25/47/87 31/48/88
f 30/49/89 28/50/90 26/51/91 32/52/92
f 31/53/93 25/54/94 27/55/95 29/56/96
f 33/57/97 34/58/98 36/59/99 35/60/100
f 37/61/101 35/62/102 36/63/103 38/64/104
f 37/65/105 38/66/106 40/67/107 39/68/108
f 40/69/109 34/70/110 33/71/111 39/72/112
f 38/73/113 36/74/114 34/75/115 40/76/116
f 39/77/117 33/78/118 35/79/119 37/80/120
f 41/81/121 42/82/122 44/83/123 43/84/124
f 45/85/125 43/86/126 44/87/127 46/88/128
f 45/89/129 46/90/130 48/91/131 47/92/132
f 48/93/133 42/94/134 41/95/135 47/96/136
f 46/97/137 44/98/138 42/99/139 48/100/140
f 47/101/141 41/102/142 43/103/143 45/104/144
