# This file uses centimeters as units for non-parametric coordinates.

mtllib Carryitem_Backpack_Bedroll.mtl
g default
v 0.150525 -0.425180 -0.341466
v -0.150846 -0.425180 -0.341145
v -0.150525 -0.425181 0.341466
v 0.150846 -0.425181 0.341145
v 0.170035 0.425181 -0.385725
v -0.170398 0.425181 -0.385362
v -0.170035 0.425180 0.385725
v 0.170397 0.425180 0.385362
v 0.240701 0.425181 -0.456480
v -0.241153 0.425181 -0.456028
v -0.240701 0.425180 0.456480
v 0.241153 0.425180 0.456028
v 0.240701 -0.425180 -0.456480
v -0.241153 -0.425180 -0.456028
v -0.240701 -0.425181 0.456480
v 0.241153 -0.425181 0.456028
vt 0.256399 0.001327
vt 0.483724 0.001327
vt 0.483724 0.222064
vt 0.256399 0.222064
vt 0.166225 -0.001515
vt 0.278190 0.247622
vt 0.521331 0.284337
vt 0.189238 0.284337
vt 0.133435 0.222267
vt 0.577196 0.222267
vt 0.461511 0.247622
vt 0.189090 0.284337
vt 0.521184 0.284337
vt 0.576987 0.222267
vt 0.133225 0.222267
vt 0.512154 0.222371
vt 0.577196 0.222267
vt 0.133435 0.222267
vt 0.189238 0.284337
vt 0.521331 0.284337
vt 0.227477 0.222371
vt 0.133225 0.222267
vt 0.576987 0.222267
vt 0.521184 0.284337
vt 0.189090 0.284337
vt 0.546196 -0.001514
vt 0.546196 0.222064
vt 0.166225 0.222064
vt 0.546370 -0.001514
vt 0.166399 -0.001515
vt 0.166399 0.222064
vt 0.546370 0.222064
vt 0.483724 0.001326
vt 0.256399 0.001326
vt 0.256399 0.222064
vt 0.483724 0.222064
vt 0.227312 0.222064
vt 0.513344 0.222064
vt 0.513344 0.001327
vt 0.227312 0.001327
vt 0.513572 0.222064
vt 0.227541 0.222064
vt 0.227541 0.001326
vt 0.513572 0.001326
vt 0.132134 0.222064
vt 0.577075 0.222064
vt 0.577075 -0.001514
vt 0.132134 -0.001515
vt 0.577293 0.222064
vt 0.132352 0.222064
vt 0.132352 -0.001515
vt 0.577293 -0.001514
vt 0.461748 0.247622
vt 0.278427 0.247622
vt 0.227783 0.222371
vt 0.512461 0.222371
vt 0.227477 0.222371
vt 0.512154 0.222371
vt 0.461511 0.247622
vt 0.278190 0.247622
vt 0.512461 0.222371
vt 0.227783 0.222371
vt 0.278427 0.247622
vt 0.461748 0.247622
vn 0.001063 0.051952 0.998649
vn 0.001063 0.051952 0.998649
vn 0.001063 0.051952 0.998649
vn 0.001063 0.051952 0.998649
vn 0.999736 0.022962 -0.000470
vn 0.999736 0.022962 -0.000470
vn 0.999736 0.022962 -0.000470
vn 0.999736 0.022962 -0.000470
vn -0.001063 0.051952 -0.998649
vn -0.001063 0.051952 -0.998649
vn -0.001063 0.051952 -0.998649
vn -0.001063 0.051952 -0.998649
vn -0.999736 0.022962 0.000469
vn -0.999736 0.022962 0.000470
vn -0.999736 0.022962 0.000470
vn -0.999736 0.022962 0.000470
vn 0.000003 1.000000 0.000004
vn 0.000003 1.000000 0.000004
vn 0.000003 1.000000 0.000004
vn 0.000003 1.000000 0.000004
vn 0.000002 1.000000 0.000003
vn 0.000002 1.000000 0.000003
vn 0.000002 1.000000 0.000003
vn 0.000002 1.000000 0.000003
vn -0.000939 0.000000 -1.000000
vn -0.000939 0.000000 -1.000000
vn -0.000939 0.000000 -1.000000
vn -0.000939 0.000000 -1.000000
vn -1.000000 0.000000 0.000496
vn -1.000000 0.000000 0.000496
vn -1.000000 0.000000 0.000496
vn -1.000000 0.000000 0.000496
vn 0.000939 0.000000 1.000000
vn 0.000939 0.000000 1.000000
vn 0.000939 0.000000 1.000000
vn 0.000939 0.000000 1.000000
vn 1.000000 0.000000 -0.000496
vn 1.000000 0.000000 -0.000496
vn 1.000000 0.000000 -0.000496
vn 1.000000 0.000000 -0.000496
vn -0.000000 -1.000000 -0.000001
vn -0.000000 -1.000000 -0.000001
vn -0.000000 -1.000000 -0.000001
vn -0.000000 -1.000000 -0.000001
vn 0.000001 -1.000000 0.000000
vn 0.000001 -1.000000 0.000000
vn 0.000001 -1.000000 0.000000
vn 0.000001 -1.000000 0.000000
s off
g pPipe1
usemtl initialShadingGroup
f 2/1/1 1/2/2 5/3/3 6/4/4
f 3/5/5 2/26/6 6/27/7 7/28/8
f 4/33/9 3/34/10 7/35/11 8/36/12
f 1/29/13 4/30/14 8/31/15 5/32/16
s 1
f 6/6/17 5/11/18 9/16/19 10/21/20
f 7/7/21 6/8/17 10/9/20 11/10/22
f 8/53/23 7/54/21 11/55/22 12/56/24
f 5/12/18 8/13/23 12/14/24 9/15/19
s off
f 10/37/25 9/38/26 13/39/27 14/40/28
f 11/45/29 10/46/30 14/47/31 15/48/32
f 12/41/33 11/42/34 15/43/35 16/44/36
f 9/49/37 12/50/38 16/51/39 13/52/40
s 2
f 14/57/41 13/58/42 1/59/43 2/60/44
f 15/17/45 14/18/41 2/19/44 3/20/46
f 16/61/47 15/62/45 3/63/46 4/64/48
f 13/22/42 16/23/47 4/24/48 1/25/43
