# Blender v2.76 (sub 0) OBJ File: ''
# www.blender.org
mtllib backpack.mtl
o Mesh1_backpack1_Model
v 0.898333 1.283630 0.403616
v 0.824730 1.283630 0.403616
v 0.898333 1.283630 0.602870
v 0.898333 1.179930 0.403616
v 0.898333 1.179930 0.602870
v 0.824730 1.179930 0.602870
v 0.824730 1.283630 0.602870
v 0.825187 1.344140 0.085295
v 0.825187 1.344140 0.914662
v 0.180191 1.344140 0.085295
v 0.725326 0.897561 0.084107
v 0.269963 0.897561 0.084107
v 0.269963 0.897561 -0.174733
v 0.725326 0.897561 -0.174733
v 0.269963 0.116107 -0.174733
v 0.725326 0.116107 -0.174733
v 0.725326 0.116107 0.084107
v 0.825187 0.000000 0.085295
v 0.824730 1.179930 0.204361
v 0.824730 0.376271 0.204361
v 0.898333 1.179930 0.204361
v 0.898333 0.376271 0.204361
v 0.898333 0.376271 0.403616
v 0.898333 0.376271 0.602870
v 0.898333 1.179930 0.802125
v 0.898333 0.376271 0.802125
v 0.824730 1.179930 0.802125
v 0.824730 0.376271 0.802125
v 0.825187 -0.000000 0.914662
v 0.725326 0.116107 0.915259
v 0.725326 0.897561 0.915259
v 0.180191 1.344140 0.914662
v 0.269963 0.897561 0.915259
v 0.269963 0.116107 0.915259
v 0.180192 -0.000000 0.914662
v 0.180192 0.000000 0.085295
v 0.824730 0.272569 0.602870
v 0.824730 0.272569 0.403616
v 0.824730 0.376271 0.403616
v 0.898333 0.272569 0.403616
v 0.898333 0.272569 0.602870
v 0.824730 0.376271 0.602870
v 0.269963 0.116107 1.174099
v 0.725326 0.116107 1.174099
v 0.725326 0.897561 1.174099
v 0.269963 0.897561 1.174099
v 0.269963 0.116107 0.084107
v 0.824730 1.179930 0.403616
vt 0.023438 0.273438
vt 0.023438 0.156250
vt 0.023438 0.265625
vt 0.070312 0.265625
vt 0.070312 0.273438
vt 0.070312 0.156250
vt 0.625000 0.656250
vt 0.625000 0.976562
vt 0.296875 0.656250
vt 0.632812 0.984375
vt 0.984375 0.640625
vt 0.984375 0.984375
vt 0.632812 0.640625
vt 0.273438 0.484375
vt 0.625000 0.640625
vt 0.273438 0.640625
vt 0.625000 0.484375
vt 0.070312 0.359375
vt 0.453125 0.359375
vt 0.453125 0.367188
vt 0.070312 0.367188
vt 0.453125 0.265625
vt 0.453125 0.156250
vt 0.070312 0.054688
vt 0.453125 0.054688
vt 0.632812 0.531250
vt 0.992188 0.007812
vt 0.992188 0.531250
vt 0.632812 0.007812
vt 0.445312 0.367188
vt 0.445312 0.265625
vt 0.453125 0.257812
vt 0.500000 0.257812
vt 0.500000 0.156250
vt 0.500000 0.265625
vt 0.445312 0.156250
vt 0.445312 0.054688
vt 0.492188 0.156250
vt 0.492188 0.265625
vt 0.296875 0.976562
vt 0.000000 0.429688
vt 0.000000 0.000000
vt 0.000000 1.000000
vt 0.039062 0.601562
vt 0.039062 0.851562
vt 0.000000 0.562500
vt 0.625000 0.437500
vt 0.625000 0.000000
vt 0.257812 1.000000
vt 0.218750 0.601562
vt 0.257812 0.562500
vt 0.218750 0.859375
vt 0.039062 0.859375
vt 0.218750 0.851562
vn 0.000000 1.000000 0.000000
vn 0.000000 0.000000 -1.000000
vn 1.000000 0.000000 0.000000
vn 0.000000 0.000000 1.000000
vn -1.000000 -0.000000 -0.000000
vn 0.000000 -1.000000 -0.000000
vn 1.000000 -0.007600 -0.000000
vn 0.011900 0.000000 -0.999900
vn 1.000000 -0.000000 0.003800
vn 1.000000 -0.000000 -0.004100
vn 0.006000 -0.000000 1.000000
vn 0.000000 0.001300 1.000000
vn -0.006700 -0.000000 1.000000
vn -0.006600 -0.000000 1.000000
vn 1.000000 0.001700 0.000000
vn 1.000000 0.000000 0.001400
vn 1.000000 0.001200 0.000000
vn 1.000000 0.000000 -0.001500
vn -0.000000 -0.005100 1.000000
vn 0.000000 -0.010200 -0.999900
vn -0.001700 0.002300 -1.000000
vn 0.000000 0.002700 -1.000000
vn -0.008300 0.001000 -1.000000
vn 1.000000 -0.002800 0.000000
vn -0.013200 0.000000 -0.999900
usemtl backpack
s 1
f 1/1/1 2/1/1 3/2/1
f 1/3/2 4/4/2 2/3/2
f 3/2/3 4/5/3 1/1/3
f 4/5/3 3/2/3 5/6/3
f 3/2/4 6/6/4 5/6/4
f 3/2/4 7/2/4 6/6/4
f 3/2/1 2/1/1 7/2/1
f 8/7/1 10/8/1 9/9/1
f 11/10/1 13/11/1 12/12/1
f 14/13/1 13/11/1 11/10/1
f 14/14/2 15/15/2 13/16/2
f 14/14/2 16/17/2 15/15/2
f 14/16/3 11/14/3 16/15/3
f 16/15/3 11/14/3 17/17/3
f 21/18/2 20/19/2 19/18/2
f 21/18/2 22/19/2 20/19/2
f 4/5/3 22/20/3 21/21/3
f 22/20/3 4/5/3 23/22/3
f 5/6/3 23/22/3 4/5/3
f 23/22/3 5/6/3 24/23/3
f 25/24/3 24/23/3 5/6/3
f 24/23/3 25/24/3 26/25/3
f 27/24/4 26/25/4 25/24/4
f 26/25/4 27/24/4 28/25/4
f 10/26/5 35/27/5 32/28/5
f 36/29/5 35/27/5 10/26/5
f 18/11/6 35/10/6 36/13/6
f 18/11/6 29/12/6 35/10/6
f 22/30/6 39/31/6 20/30/6
f 23/31/6 39/31/6 22/30/6
f 23/32/2 40/33/2 39/32/2
f 23/22/3 41/34/3 40/35/3
f 23/22/3 24/23/3 41/34/3
f 24/23/4 37/34/4 41/34/4
f 24/23/4 42/23/4 37/34/4
f 24/36/6 28/37/6 42/36/6
f 24/36/6 26/37/6 28/37/6
f 41/38/6 37/38/6 40/39/6
f 40/39/6 37/38/6 38/39/6
f 39/32/2 40/33/2 38/33/2
f 30/12/6 43/13/6 34/10/6
f 30/12/6 44/11/6 43/13/6
f 30/15/3 45/14/3 44/17/3
f 31/16/3 45/14/3 30/15/3
f 31/12/1 33/10/1 45/11/1
f 45/11/1 33/10/1 46/13/1
f 33/14/5 43/15/5 46/16/5
f 34/17/5 43/15/5 33/14/5
f 46/15/4 43/16/4 44/14/4
f 45/17/4 46/15/4 44/14/4
f 16/10/6 17/13/6 47/11/6
f 16/10/6 47/11/6 15/12/6
f 15/17/5 47/15/5 13/14/5
f 13/14/5 47/15/5 12/16/5
f 9/9/1 10/8/1 32/40/1
f 25/24/1 6/6/1 27/24/1
f 5/6/1 6/6/1 25/24/1
f 21/21/1 19/21/1 4/5/1
f 4/5/1 19/21/1 48/5/1
f 2/3/2 4/4/2 48/4/2
usemtl backpack
f 8/41/7 7/2/7 2/1/7
f 7/2/7 8/41/7 9/42/7
f 8/43/8 17/44/8 11/45/8
f 17/44/8 8/43/8 18/46/8
f 19/21/9 18/47/9 8/41/9
f 18/47/9 19/21/9 20/20/9
f 9/42/10 28/25/10 27/24/10
f 28/25/10 9/42/10 29/48/10
f 9/49/11 30/50/11 29/51/11
f 30/50/11 9/49/11 31/52/11
f 32/43/12 31/52/12 9/49/12
f 31/52/12 32/43/12 33/53/12
f 32/43/13 34/44/14 33/53/13
f 34/44/14 32/43/13 35/46/14
f 18/47/15 37/34/15 29/48/15
f 37/34/15 18/47/15 38/35/15
f 18/47/16 39/22/16 38/35/16
f 18/47/17 20/20/17 39/22/17
f 42/23/17 28/25/17 29/48/17
f 42/23/18 29/48/18 37/34/18
f 29/51/19 34/44/19 35/46/19
f 34/44/19 29/51/19 30/50/19
f 47/50/20 18/46/20 36/51/20
f 18/46/20 47/50/20 17/44/20
f 10/49/21 8/43/22 11/45/22 12/54/23
f 6/6/24 9/42/24 27/24/24
f 7/2/18 9/42/18 6/6/18
f 8/41/24 48/5/24 19/21/24
f 8/41/16 2/1/16 48/5/16
f 36/51/25 10/49/21 12/54/23 47/50/25
