# This file uses centimeters as units for non-parametric coordinates.

mtllib bedroll.mtl
g default
v -0.000001 -0.283541 1.775965
v 3.723144 -0.283541 1.775965
v -0.000001 0.283541 1.775965
v 3.723144 0.283541 1.775965
v -0.000001 0.283541 -1.775965
v 3.723144 0.283541 -1.775965
v -0.000001 -0.283541 -1.775965
v 3.723144 -0.283541 -1.775965
v -3.723146 -0.283541 1.775965
v -0.000001 -0.283541 1.775965
v -3.723146 0.283541 1.775965
v -0.000001 0.283541 1.775965
v -3.723146 0.283541 -1.775965
v -0.000001 0.283541 -1.775965
v -3.723146 -0.283541 -1.775965
v -0.000001 -0.283541 -1.775965
vt 0.996014 0.000256
vt 0.447692 0.691081
vt 0.007119 0.000256
vt 0.448338 0.000600
vt 0.506624 0.133633
vt 0.997315 0.133633
vt 0.997315 0.207191
vt 0.506624 0.207191
vt 0.500203 0.223964
vt 0.992085 0.223964
vt 0.555442 0.000670
vt 0.554796 0.691151
vt 0.007119 0.115186
vt 0.996014 0.115186
vt 0.448338 0.000600
vt 0.506624 0.207191
vt 0.997315 0.207191
vt 0.447692 0.691081
vt 0.997315 0.133633
vt 0.506624 0.133633
vt 0.006624 0.133633
vt 0.506624 0.133633
vt 0.992085 0.688603
vt 0.500203 0.688603
vt 0.500203 0.688603
vt 0.992085 0.688603
vt 0.554796 0.691151
vt 0.555442 0.000670
vt 0.992085 0.223964
vt 0.500203 0.223964
vt 0.008320 0.223964
vt 0.500203 0.223964
vt 0.500203 0.688603
vt 0.008320 0.688603
vt 0.008320 0.688603
vt 0.500203 0.688603
vt 0.500203 0.223964
vt 0.008320 0.223964
vt 0.506624 0.207191
vt 0.006624 0.207191
vt 0.006624 0.207191
vt 0.506624 0.207191
vt 0.506624 0.133633
vt 0.006624 0.133633
vn 0.000000 0.000000 1.000000
vn 0.000000 0.000000 1.000000
vn 0.000000 0.000000 1.000000
vn 0.000000 0.000000 1.000000
vn 0.000000 1.000000 0.000000
vn 0.000000 1.000000 0.000000
vn 0.000000 1.000000 0.000000
vn 0.000000 1.000000 0.000000
vn 0.000000 0.000000 -1.000000
vn 0.000000 0.000000 -1.000000
vn 0.000000 0.000000 -1.000000
vn 0.000000 0.000000 -1.000000
vn 0.000000 -1.000000 0.000000
vn 0.000000 -1.000000 0.000000
vn 0.000000 -1.000000 0.000000
vn 0.000000 -1.000000 0.000000
vn 1.000000 0.000000 0.000000
vn 1.000000 0.000000 0.000000
vn 1.000000 0.000000 0.000000
vn 1.000000 0.000000 0.000000
vn -1.000000 0.000000 0.000000
vn -1.000000 0.000000 0.000000
vn -1.000000 0.000000 0.000000
vn -1.000000 0.000000 0.000000
vn 0.000000 0.000000 1.000000
vn 0.000000 0.000000 1.000000
vn 0.000000 0.000000 1.000000
vn 0.000000 0.000000 1.000000
vn 0.000000 1.000000 0.000000
vn 0.000000 1.000000 0.000000
vn 0.000000 1.000000 0.000000
vn 0.000000 1.000000 0.000000
vn 0.000000 0.000000 -1.000000
vn 0.000000 0.000000 -1.000000
vn 0.000000 0.000000 -1.000000
vn 0.000000 0.000000 -1.000000
vn 0.000000 -1.000000 0.000000
vn 0.000000 -1.000000 0.000000
vn 0.000000 -1.000000 0.000000
vn 0.000000 -1.000000 0.000000
vn 1.000000 0.000000 0.000000
vn 1.000000 0.000000 0.000000
vn 1.000000 0.000000 0.000000
vn 1.000000 0.000000 0.000000
vn -1.000000 0.000000 0.000000
vn -1.000000 0.000000 0.000000
vn -1.000000 0.000000 0.000000
vn -1.000000 0.000000 0.000000
s off
g polySurface50
usemtl lambert4SG
f 1/5/1 2/6/2 4/7/3 3/8/4
f 3/9/5 4/10/6 6/23/7 5/24/8
f 5/16/9 6/17/10 8/19/11 7/20/12
f 7/25/13 8/26/14 2/29/15 1/30/16
f 2/2/17 8/4/18 6/11/19 4/12/20
f 7/1/21 1/3/22 3/13/23 5/14/24
f 9/21/25 10/22/26 12/39/27 11/40/28
f 11/31/29 12/32/30 14/33/31 13/34/32
f 13/41/33 14/42/34 16/43/35 15/44/36
f 15/35/37 16/36/38 10/37/39 9/38/40
f 10/37/41 16/36/42 14/33/43 12/32/44
f 15/15/45 9/18/46 11/27/47 13/28/48
