# Blender v2.76 (sub 0) OBJ File: ''
# www.blender.org
mtllib bedroll.mtl
o polySurfac_polySurfac.001
v 1.491702 0.000000 -0.000000
v 0.497234 0.057801 0.000000
v 1.491702 0.057801 0.000000
v 0.497234 0.000000 -0.000000
v 0.497234 0.057801 1.068630
v 0.497234 0.057801 0.000000
v 0.497234 0.000000 -0.000000
v 1.491702 0.057801 0.000000
v 0.497234 0.057801 0.000000
v 0.497234 0.057801 1.068630
v -0.497234 0.057801 1.068630
v -0.497234 0.057801 0.000000
v -0.497234 0.057801 0.000000
v -0.497234 0.000000 -0.000000
v -0.497234 0.057801 1.068630
v -0.497234 0.057801 0.000000
v -0.497234 0.000000 -0.000000
v -0.497234 -0.000000 1.068630
v 0.497234 -0.000000 1.068630
v -0.497234 -0.000000 1.068630
v -0.497234 0.000000 -0.000000
v 0.497234 -0.000000 1.068630
v 0.497234 0.057801 1.068630
v -0.497234 -0.000000 1.068630
v 1.491702 0.057801 1.068630
v 1.491702 -0.000000 1.068630
v 1.491702 -0.000000 1.068630
v 1.491702 0.057801 0.000000
v 1.491702 0.057801 1.068630
v 1.491702 0.000000 -0.000000
v 1.491702 -0.000000 1.068630
v 0.497234 0.000000 -0.000000
v 1.491702 0.000000 -0.000000
v 0.497234 -0.000000 1.068630
v 0.497234 -0.000000 1.068630
v 0.497234 0.000000 -0.000000
v 0.497234 0.057801 0.000000
v 0.497234 0.057801 1.068630
v 1.491702 0.057801 1.068630
v -0.497234 0.057801 1.068630
vt 0.007812 0.000000
vt 0.492188 0.000000
vt 0.000000 0.000000
vt 0.500000 0.000000
vt 0.492188 0.687500
vt 0.984375 0.687500
vt 0.984375 0.000000
vt 0.984375 0.671875
vt 0.500000 0.671875
vt 0.000000 0.687500
vt 0.007812 0.671875
vn 0.000000 0.000000 -1.000000
vn -1.000000 0.000000 0.000000
vn 0.000000 1.000000 0.000000
vn 0.000000 -1.000000 -0.000000
vn 0.000000 0.000000 1.000000
vn 1.000000 0.000000 0.000000
usemtl bedroll
s off
f 1/1/1 2/2/1 3/3/1
f 1/1/1 4/4/1 2/2/1
f 5/5/2 6/2/2 7/4/2
f 8/3/3 9/2/3 10/5/3
f 9/2/3 11/6/3 10/5/3
f 9/2/3 12/7/3 11/6/3
f 4/4/1 13/7/1 2/2/1
f 14/7/1 13/7/1 4/4/1
f 15/6/2 16/7/2 17/7/2
f 15/6/2 17/7/2 18/8/2
f 19/9/4 20/8/4 21/7/4
f 22/9/5 23/5/5 24/8/5
f 22/9/5 25/10/5 23/5/5
f 26/11/5 25/10/5 22/9/5
f 27/11/6 28/3/6 29/10/6
f 27/11/6 30/1/6 28/3/6
f 31/11/4 32/4/4 33/1/4
f 31/11/4 19/9/4 32/4/4
f 5/5/2 7/4/2 34/9/2
f 19/9/4 21/7/4 32/4/4
f 35/9/6 36/4/6 37/2/6
f 35/9/6 37/2/6 38/5/6
f 8/3/3 10/5/3 39/10/3
f 24/8/5 23/5/5 40/6/5
