# Blender v2.76 (sub 0) OBJ File: ''
# www.blender.org
mtllib pillow.mtl
o pCube11_1_pCube11_1.001
v -0.395753 0.142242 0.229944
v -0.348773 0.166998 0.167507
v -0.332367 0.142242 0.183317
v -0.348773 0.166998 0.167507
v -0.395753 0.142242 0.229944
v -0.419884 0.166778 0.225112
v -0.397203 0.166998 0.353980
v -0.419884 0.166778 0.225112
v -0.395753 0.142242 0.229944
v -0.397203 0.186436 0.353980
v -0.419884 0.166778 0.225112
v -0.397203 0.166998 0.353980
v -0.419884 0.186655 0.225112
v -0.397203 0.186436 0.353980
v -0.395753 0.209912 0.229944
v -0.419884 0.186655 0.225112
v -0.397203 0.186436 0.353980
v -0.372175 0.209912 0.349024
v -0.395753 0.209912 0.229944
v -0.354881 0.186436 0.567720
v -0.372175 0.209912 0.349024
v -0.397203 0.186436 0.353980
v -0.354881 0.186436 0.567720
v -0.329853 0.209912 0.562764
v -0.317607 0.186436 0.755970
v -0.292579 0.209912 0.751014
v -0.329853 0.209912 0.562764
v -0.317607 0.186436 0.755970
v -0.286161 0.186656 0.900465
v -0.292579 0.209912 0.751014
v -0.286161 0.186656 0.900465
v -0.317607 0.186436 0.755970
v -0.286161 0.166778 0.900465
v -0.317607 0.166998 0.755970
v -0.317607 0.186436 0.755970
v -0.354881 0.186436 0.567720
v -0.317607 0.166998 0.755970
v -0.354881 0.166998 0.567720
v -0.397203 0.186436 0.353980
v -0.397203 0.166998 0.353980
v -0.397203 0.166998 0.353980
v -0.372175 0.142242 0.349025
v -0.354881 0.166998 0.567720
v -0.395753 0.142242 0.229944
v -0.395753 0.142242 0.229944
v -0.306434 0.142242 0.314286
v -0.372175 0.142242 0.349025
v -0.332367 0.142242 0.183317
v -0.163943 0.142242 0.286072
v -0.189875 0.142242 0.155103
v -0.181296 0.166998 0.134346
v -0.189875 0.142242 0.155103
v -0.332367 0.142242 0.183317
v -0.181296 0.166998 0.134346
v -0.110284 0.142242 0.173420
v -0.189875 0.142242 0.155103
v -0.181296 0.166998 0.134346
v -0.089815 0.166778 0.159756
v -0.110284 0.142242 0.173420
v -0.181296 0.186435 0.134346
v -0.089815 0.166778 0.159756
v -0.181296 0.166998 0.134346
v -0.089815 0.186655 0.159756
v -0.061677 0.166998 0.287544
v -0.089815 0.166778 0.159756
v -0.089815 0.186655 0.159756
v -0.086705 0.142242 0.292500
v -0.089815 0.166778 0.159756
v -0.061677 0.166998 0.287544
v -0.086705 0.142242 0.292500
v -0.110284 0.142242 0.173420
v -0.089815 0.166778 0.159756
v -0.110284 0.142242 0.173420
v -0.086705 0.142242 0.292500
v -0.044384 0.142242 0.506240
v -0.086705 0.142242 0.292500
v -0.061677 0.166998 0.287544
v -0.044384 0.142242 0.506240
v -0.044384 0.142242 0.506240
v -0.061677 0.166998 0.287544
v -0.019356 0.166998 0.501284
v -0.019356 0.166998 0.501284
v -0.061677 0.166998 0.287544
v -0.061677 0.186436 0.287544
v -0.061677 0.186436 0.287544
v -0.086705 0.209912 0.292500
v -0.061677 0.186436 0.287544
v -0.089815 0.186655 0.159756
v -0.044384 0.209912 0.506240
v -0.061677 0.186436 0.287544
v -0.086705 0.209912 0.292500
v -0.044384 0.209912 0.506240
v -0.019356 0.186436 0.501284
v -0.007109 0.209912 0.694490
v 0.017919 0.186436 0.689534
v -0.019356 0.186436 0.501284
v 0.019777 0.209912 0.830276
v 0.043908 0.186656 0.835109
v 0.017919 0.186436 0.689534
v 0.019777 0.209912 0.830276
v 0.043908 0.166778 0.835109
v 0.017919 0.186436 0.689534
v 0.043908 0.186656 0.835109
v 0.017919 0.166998 0.689534
v 0.043908 0.166778 0.835109
v 0.019777 0.142242 0.830276
v 0.017919 0.166998 0.689534
v 0.043908 0.166778 0.835109
v -0.046829 0.142242 0.877541
v 0.019777 0.142242 0.830276
v -0.046829 0.142242 0.877541
v 0.043908 0.166778 0.835109
v -0.030987 0.166999 0.893463
v 0.043908 0.186656 0.835109
v -0.030987 0.166999 0.893463
v 0.043908 0.166778 0.835109
v -0.030987 0.186436 0.893462
v 0.019777 0.209912 0.830276
v -0.030987 0.186436 0.893462
v 0.043908 0.186656 0.835109
v -0.046829 0.209912 0.877541
v -0.030987 0.186436 0.893462
v 0.019777 0.209912 0.830276
v -0.046829 0.209912 0.877541
v -0.198464 0.186436 0.926624
v -0.030987 0.186436 0.893462
v -0.189320 0.209912 0.905755
v -0.265692 0.209912 0.886801
v -0.198464 0.186436 0.926624
v -0.189320 0.209912 0.905755
v -0.265692 0.209912 0.886801
v -0.286161 0.186656 0.900465
v -0.198464 0.186436 0.926624
v -0.286161 0.186656 0.900465
v -0.265692 0.209912 0.886801
v -0.292579 0.209912 0.751014
v -0.265692 0.209912 0.886801
v -0.189320 0.209912 0.905755
v -0.292579 0.209912 0.751014
v -0.292579 0.209912 0.751014
v -0.189320 0.209912 0.905755
v -0.218891 0.216039 0.756412
v -0.189320 0.209912 0.905755
v -0.046829 0.209912 0.877541
v -0.218891 0.216039 0.756412
v -0.076400 0.216039 0.728198
v -0.046829 0.209912 0.877541
v -0.007109 0.209912 0.694490
v -0.076400 0.216039 0.728198
v -0.046829 0.209912 0.877541
v 0.019777 0.209912 0.830276
v -0.007109 0.209912 0.694490
v -0.076400 0.216039 0.728198
v -0.007109 0.209912 0.694490
v -0.044384 0.209912 0.506240
v -0.076400 0.216039 0.728198
v -0.044384 0.209912 0.506240
v -0.117396 0.219716 0.521152
v -0.117396 0.219716 0.521152
v -0.044384 0.209912 0.506240
v -0.086705 0.209912 0.292500
v -0.117396 0.219716 0.521152
v -0.086705 0.209912 0.292500
v -0.163943 0.216039 0.286072
v -0.163943 0.216039 0.286072
v -0.086705 0.209912 0.292500
v -0.110284 0.209912 0.173420
v -0.086705 0.209912 0.292500
v -0.089815 0.186655 0.159756
v -0.110284 0.209912 0.173420
v -0.110284 0.209912 0.173420
v -0.089815 0.186655 0.159756
v -0.181296 0.186435 0.134346
v -0.189875 0.209912 0.155103
v -0.110284 0.209912 0.173420
v -0.181296 0.186435 0.134346
v -0.163943 0.216039 0.286072
v -0.110284 0.209912 0.173420
v -0.189875 0.209912 0.155103
v -0.306434 0.216039 0.314286
v -0.163943 0.216039 0.286072
v -0.189875 0.209912 0.155103
v -0.259887 0.219716 0.549366
v -0.163943 0.216039 0.286072
v -0.306434 0.216039 0.314286
v -0.117396 0.219716 0.521152
v -0.218891 0.216039 0.756412
v -0.117396 0.219716 0.521152
v -0.259887 0.219716 0.549366
v -0.076400 0.216039 0.728198
v -0.292579 0.209912 0.751014
v -0.218891 0.216039 0.756412
v -0.259887 0.219716 0.549366
v -0.292579 0.209912 0.751014
v -0.259887 0.219716 0.549366
v -0.329853 0.209912 0.562764
v -0.329853 0.209912 0.562764
v -0.259887 0.219716 0.549366
v -0.306434 0.216039 0.314286
v -0.329853 0.209912 0.562764
v -0.306434 0.216039 0.314286
v -0.372175 0.209912 0.349024
v -0.372175 0.209912 0.349024
v -0.306434 0.216039 0.314286
v -0.332367 0.209912 0.183317
v -0.332367 0.209912 0.183317
v -0.189875 0.209912 0.155103
v -0.348773 0.186435 0.167507
v -0.332367 0.209912 0.183317
v -0.181296 0.186435 0.134346
v -0.181296 0.186435 0.134346
v -0.181296 0.166998 0.134346
v -0.348773 0.186435 0.167507
v -0.348773 0.166998 0.167507
v -0.348773 0.166998 0.167507
v -0.419884 0.186655 0.225112
v -0.348773 0.186435 0.167507
v -0.348773 0.166998 0.167507
v -0.419884 0.186655 0.225112
v -0.332367 0.209912 0.183317
v -0.348773 0.186435 0.167507
v -0.395753 0.209912 0.229944
v -0.332367 0.209912 0.183317
v -0.419884 0.186655 0.225112
v -0.372175 0.209912 0.349024
v -0.332367 0.209912 0.183317
v -0.395753 0.209912 0.229944
v -0.419884 0.166778 0.225112
v -0.286161 0.186656 0.900465
v -0.286161 0.166778 0.900465
v -0.198464 0.186436 0.926624
v -0.198464 0.166999 0.926624
v -0.198464 0.166999 0.926624
v -0.286161 0.166778 0.900465
v -0.265692 0.142242 0.886801
v -0.286161 0.166778 0.900465
v -0.292579 0.142242 0.751014
v -0.265692 0.142242 0.886801
v -0.317607 0.166998 0.755970
v -0.292579 0.142242 0.751014
v -0.286161 0.166778 0.900465
v -0.317607 0.166998 0.755970
v -0.329853 0.142242 0.562764
v -0.292579 0.142242 0.751014
v -0.354881 0.166998 0.567720
v -0.329853 0.142242 0.562764
v -0.317607 0.166998 0.755970
v -0.354881 0.166998 0.567720
v -0.329853 0.142242 0.562764
v -0.259887 0.142242 0.549366
v -0.329853 0.142242 0.562764
v -0.117396 0.142242 0.521152
v -0.117396 0.142242 0.521152
v -0.044384 0.142242 0.506240
v -0.007109 0.142242 0.694490
v -0.044384 0.142242 0.506240
v -0.019356 0.166998 0.501284
v -0.007109 0.142242 0.694490
v -0.019356 0.166998 0.501284
v 0.017919 0.166998 0.689534
v 0.017919 0.166998 0.689534
v -0.019356 0.186436 0.501284
v 0.017919 0.186436 0.689534
v -0.007109 0.142242 0.694490
v 0.019777 0.142242 0.830276
v -0.076400 0.142242 0.728198
v 0.019777 0.142242 0.830276
v -0.218891 0.142242 0.756412
v -0.046829 0.142242 0.877541
v -0.189320 0.142242 0.905755
v -0.030987 0.166999 0.893463
v -0.189320 0.142242 0.905755
v -0.046829 0.142242 0.877541
v -0.198464 0.166999 0.926624
v -0.265692 0.142242 0.886801
v -0.189320 0.142242 0.905755
v -0.198464 0.166999 0.926624
v -0.292579 0.142242 0.751014
v -0.265692 0.142242 0.886801
v -0.329853 0.142242 0.562764
v -0.030987 0.186436 0.893462
v -0.198464 0.166999 0.926624
v -0.030987 0.166999 0.893463
v -0.198464 0.186436 0.926624
vt 0.000000 0.921875
vt 0.140625 1.000000
vt 0.140625 0.921875
vt 0.000000 0.796875
vt 0.000000 0.500000
vt 0.000000 0.296875
vt 0.000000 0.078125
vt 0.359375 0.796875
vt 0.640625 0.796875
vt 0.640625 0.921875
vt 0.640625 1.000000
vt 0.859375 0.921875
vt 1.000000 0.921875
vt 1.000000 0.796875
vt 0.859375 0.796875
vt 0.859375 0.500000
vt 1.000000 0.500000
vt 1.000000 0.296875
vt 1.000000 0.078125
vt 0.640625 0.078125
vt 0.859375 0.000000
vt 0.359375 0.000000
vt 0.359375 0.078125
vt 0.140625 0.078125
vt 0.359375 0.203125
vt 0.640625 0.203125
vt 0.640625 0.500000
vt 0.359375 0.500000
vn -0.438900 -0.671900 -0.596600
vn -0.497400 -0.610600 -0.616300
vn -0.719600 -0.682500 0.127800
vn -0.984900 0.000000 0.173300
vn -0.701400 0.701800 0.124600
vn -0.664200 0.735900 0.131500
vn -0.661900 0.735800 0.142900
vn -0.977100 0.000000 0.212700
vn -0.981000 0.000000 0.194200
vn -0.683100 -0.717700 0.135300
vn 0.000000 -1.000000 0.000000
vn -0.155000 -0.602600 -0.782800
vn 0.167100 -0.666800 -0.726200
vn 0.211900 -0.604400 -0.768000
vn 0.267600 -0.000000 -0.963500
vn 0.976600 -0.000000 -0.215000
vn 0.680400 -0.717600 -0.148600
vn 0.719600 -0.679600 -0.142500
vn 0.683100 -0.717700 -0.135300
vn 0.981000 0.000000 -0.194200
vn 0.661600 0.735800 -0.144400
vn 0.664200 0.735900 -0.131500
vn 0.701400 0.701500 -0.126300
vn 0.984400 0.000000 -0.175700
vn 0.719600 -0.682200 -0.129500
vn 0.467500 -0.589500 0.658800
vn 0.455500 -0.669100 0.587200
vn 0.614600 0.000000 0.788800
vn 0.478700 0.624900 0.616800
vn 0.420900 0.686300 0.593200
vn 0.151900 0.622900 0.767400
vn -0.174100 0.691200 0.701300
vn -0.220300 0.631000 0.743900
vn -0.701500 0.699000 0.138900
vn -0.000000 1.000000 -0.000000
vn -0.086900 0.994500 0.058000
vn 0.007800 0.999200 0.039400
vn 0.098400 0.994900 0.021300
vn 0.080400 0.996600 -0.015900
vn 0.131400 0.991300 -0.008400
vn 0.128000 0.991500 -0.025300
vn 0.081700 0.996200 -0.031700
vn 0.701500 0.699000 -0.138900
vn 0.207600 0.624900 -0.752600
vn 0.163100 0.686300 -0.708800
vn 0.011300 0.998700 -0.049000
vn -0.008900 0.998900 -0.045000
vn -0.003000 0.999900 -0.015000
vn 0.003400 0.999800 0.017100
vn -0.085300 0.995800 0.034600
vn -0.133700 0.990700 0.026500
vn -0.136600 0.990600 0.011600
vn -0.084100 0.996300 0.016600
vn -0.106100 0.994000 -0.025500
vn -0.151900 0.622900 -0.767400
vn -0.194200 -0.000000 -0.981000
vn -0.629400 -0.000000 -0.777000
vn -0.452100 0.693600 -0.560800
vn -0.466700 0.616100 -0.634500
vn -0.285800 0.000000 0.958300
vn -0.225000 -0.610600 0.759300
vn -0.719600 -0.679600 0.142500
vn -0.680700 -0.717600 0.147100
vn 0.155000 -0.602600 0.782800
vn -0.178400 -0.671900 0.718900
vn 0.194200 0.000000 0.981000
usemtl pillow
s off
f 1/1/1 2/2/1 3/3/1
f 4/2/2 5/1/2 6/1/2
f 7/4/3 8/1/3 9/1/3
f 10/4/4 11/1/4 12/4/4
f 10/4/4 13/1/4 11/1/4
f 14/4/5 15/1/5 16/1/5
f 17/4/6 18/4/6 19/1/6
f 20/5/6 21/4/6 22/4/6
f 23/5/6 24/5/6 21/4/6
f 25/6/6 24/5/6 23/5/6
f 25/6/6 26/6/6 27/5/6
f 28/6/7 29/7/7 30/6/7
f 31/7/8 32/6/8 33/7/8
f 33/7/8 32/6/8 34/6/8
f 35/6/9 36/5/9 37/6/9
f 37/6/9 36/5/9 38/5/9
f 38/5/9 36/5/9 39/4/9
f 38/5/9 39/4/9 40/4/9
f 41/4/10 42/4/10 43/5/10
f 41/4/10 44/1/10 42/4/10
f 45/1/11 46/8/11 47/4/11
f 45/1/11 48/3/11 46/8/11
f 48/3/11 49/9/11 46/8/11
f 48/3/11 50/10/11 49/9/11
f 51/11/12 52/10/12 53/3/12
f 54/11/13 55/12/13 56/10/13
f 57/11/14 58/13/14 59/12/14
f 60/11/15 61/13/15 62/11/15
f 63/13/15 61/13/15 60/11/15
f 64/14/16 65/13/16 66/13/16
f 67/15/17 68/13/17 69/14/17
f 70/15/18 71/12/18 72/13/18
f 50/10/11 73/12/11 74/15/11
f 50/10/11 74/15/11 49/9/11
f 49/9/11 74/15/11 75/16/11
f 76/15/19 77/14/19 78/16/19
f 79/16/19 80/14/19 81/17/19
f 82/17/20 83/14/20 84/14/20
f 64/14/16 66/13/16 85/14/16
f 86/15/21 87/14/21 88/13/21
f 89/16/22 90/14/22 91/15/22
f 92/16/22 93/17/22 90/14/22
f 94/18/22 93/17/22 92/16/22
f 94/18/22 95/18/22 96/17/22
f 97/19/22 95/18/22 94/18/22
f 98/19/23 99/18/23 100/19/23
f 101/19/24 102/18/24 103/19/24
f 101/19/24 104/18/24 102/18/24
f 105/19/25 106/19/25 107/18/25
f 108/19/26 109/20/26 110/19/26
f 111/20/27 112/19/27 113/21/27
f 114/19/28 115/21/28 116/19/28
f 114/19/28 117/21/28 115/21/28
f 118/19/29 119/21/29 120/19/29
f 121/20/30 122/21/30 123/19/30
f 124/20/31 125/22/31 126/21/31
f 127/23/31 125/22/31 124/20/31
f 128/24/32 129/22/32 130/23/32
f 131/24/33 132/7/33 133/22/33
f 134/7/34 135/24/34 136/6/34
f 137/24/35 138/23/35 139/6/35
f 140/6/36 141/23/36 142/25/36
f 143/23/37 144/20/37 145/25/37
f 145/25/37 144/20/37 146/26/37
f 147/20/38 148/18/38 149/26/38
f 150/20/35 151/19/35 152/18/35
f 153/26/39 154/18/39 155/16/39
f 156/26/40 157/16/40 158/27/40
f 159/27/41 160/16/41 161/15/41
f 162/27/42 163/15/42 164/9/42
f 165/9/39 166/15/39 167/12/39
f 168/15/43 169/13/43 170/12/43
f 171/12/44 172/13/44 173/11/44
f 174/10/45 175/12/45 176/11/45
f 177/9/46 178/12/46 179/10/46
f 180/8/47 181/9/47 182/10/47
f 183/28/48 184/9/48 185/8/48
f 183/28/48 186/27/48 184/9/48
f 187/25/49 188/27/49 189/28/49
f 187/25/49 190/26/49 188/27/49
f 191/6/50 192/25/50 193/28/50
f 194/6/51 195/28/51 196/5/51
f 197/5/52 198/28/52 199/8/52
f 200/5/53 201/8/53 202/4/53
f 203/4/54 204/8/54 205/3/54
f 180/8/47 182/10/47 206/3/47
f 207/10/55 208/2/55 209/3/55
f 207/10/55 210/11/55 208/2/55
f 211/11/56 212/11/56 213/2/56
f 213/2/56 212/11/56 214/2/56
f 51/11/12 53/3/12 215/2/12
f 216/1/57 217/2/57 218/2/57
f 219/1/58 220/3/58 221/2/58
f 222/1/59 223/3/59 224/1/59
f 225/4/35 226/3/35 227/1/35
f 216/1/57 218/2/57 228/1/57
f 229/7/60 230/7/60 231/22/60
f 231/22/60 230/7/60 232/22/60
f 233/22/61 234/7/61 235/24/61
f 236/7/62 237/6/62 238/24/62
f 239/6/63 240/6/63 241/7/63
f 242/6/10 243/5/10 244/6/10
f 245/5/10 246/5/10 247/6/10
f 248/5/10 42/4/10 249/5/10
f 47/4/11 250/28/11 251/5/11
f 47/4/11 46/8/11 250/28/11
f 46/8/11 252/27/11 250/28/11
f 46/8/11 49/9/11 252/27/11
f 49/9/11 75/16/11 252/27/11
f 253/27/11 254/16/11 255/18/11
f 256/16/19 257/17/19 258/18/19
f 258/18/19 259/17/19 260/18/19
f 261/18/20 82/17/20 262/17/20
f 82/17/20 84/14/20 262/17/20
f 261/18/20 262/17/20 263/18/20
f 264/18/19 260/18/19 265/19/19
f 266/26/11 255/18/11 267/19/11
f 252/27/11 255/18/11 266/26/11
f 250/28/11 252/27/11 266/26/11
f 250/28/11 266/26/11 268/25/11
f 268/25/11 266/26/11 269/20/11
f 266/26/11 267/19/11 269/20/11
f 268/25/11 269/20/11 270/23/11
f 271/21/64 272/23/64 273/20/64
f 274/22/64 272/23/64 271/21/64
f 275/24/65 276/23/65 277/22/65
f 278/6/11 270/23/11 279/24/11
f 278/6/11 268/25/11 270/23/11
f 280/5/11 268/25/11 278/6/11
f 251/5/11 250/28/11 268/25/11
f 281/21/66 282/22/66 283/21/66
f 284/22/66 282/22/66 281/21/66
