# This file uses centimeters as units for non-parametric coordinates.

mtllib Tent.mtl
v -4.365912 -2.113410 -2.134138
v 4.365912 -2.113410 -2.134138
v -6.241977 -2.113410 2.119245
v 6.241978 -2.113410 2.119245
v -4.365912 1.468698 2.119245
v 4.365912 1.468698 2.119245
v -4.365912 1.468698 -2.134138
v 4.365912 1.468698 -2.134138
v -5.919961 -2.086239 2.134138
v -5.862437 -2.114351 2.134138
v -4.167427 1.499857 2.134138
v -4.109901 1.471745 2.134138
v -4.167427 1.499857 2.079246
v -4.109901 1.471745 2.079246
v -5.919961 -2.086239 2.079246
v -5.862437 -2.114351 2.079246
v 5.853487 -2.086236 2.134138
v 5.795962 -2.114349 2.134138
v 4.043427 1.471747 2.134138
v 4.100950 1.499859 2.134138
v 4.043427 1.471747 2.079246
v 4.100950 1.499859 2.079246
v 5.795962 -2.114349 2.079246
v 5.853487 -2.086236 2.079246
v -4.532084 1.526809 0.104589
v 4.532084 1.526809 0.104589
v -4.532084 1.768353 0.104589
v 4.532084 1.768353 0.104589
v -4.532084 1.768353 -0.136956
v 4.532084 1.768353 -0.136956
v -4.532084 1.526809 -0.136956
v 4.532084 1.526809 -0.136956
v -2.333936 1.549794 -0.023967
v -2.333936 1.745368 -0.023967
v -2.333936 1.745368 -0.219541
v -2.333936 1.549794 -0.219541
v 2.710361 1.549794 0.081604
v 2.710361 1.745368 0.081604
v 2.710361 1.745368 -0.113971
v 2.710361 1.549794 -0.113971
v 0.162211 1.576643 -0.064012
v 0.162211 1.718519 -0.064012
v 0.162211 1.718519 -0.205888
v 0.162211 1.576643 -0.205888
v -4.308141 2.159955 -0.150651
v -4.301071 -2.098240 -0.150651
v -4.066597 2.160356 -0.150651
v -4.059527 -2.097839 -0.150651
v -4.066597 2.160356 -0.392196
v -4.059527 -2.097839 -0.392196
v -4.308141 2.159955 -0.392196
v -4.301071 -2.098240 -0.392196
v -4.283442 1.127340 -0.279207
v -4.087868 1.127665 -0.279207
v -4.087868 1.127665 -0.474781
v -4.283442 1.127340 -0.474781
v -4.279507 -1.242387 -0.173636
v -4.083933 -1.242062 -0.173636
v -4.083933 -1.242062 -0.369211
v -4.279507 -1.242387 -0.369211
v -4.254645 -0.045264 -0.319252
v -4.112770 -0.045028 -0.319252
v -4.112770 -0.045028 -0.461128
v -4.254645 -0.045264 -0.461128
v 4.115890 2.159955 -0.150651
v 4.122960 -2.098240 -0.150651
v 4.357433 2.160356 -0.150651
v 4.364503 -2.097839 -0.150651
v 4.357433 2.160356 -0.392196
v 4.364503 -2.097839 -0.392196
v 4.115890 2.159955 -0.392196
v 4.122960 -2.098240 -0.392196
v 4.140589 1.127340 -0.279207
v 4.336163 1.127665 -0.279207
v 4.336163 1.127665 -0.474781
v 4.140589 1.127340 -0.474781
v 4.144524 -1.242387 -0.173636
v 4.340097 -1.242062 -0.173636
v 4.340097 -1.242062 -0.369211
v 4.144524 -1.242387 -0.369211
v 4.169385 -0.045264 -0.319252
v 4.311261 -0.045028 -0.319252
v 4.311261 -0.045028 -0.461128
v 4.169385 -0.045264 -0.461128
vt 0.570977 0.758315
vt 0.570977 0.991877
vt 0.336144 0.991877
vt 0.336144 0.758315
vt 0.006604 0.351654
vt 0.688053 0.351654
vt 0.006604 0.346062
vt 0.688053 0.346062
vt 0.688053 0.004292
vt 0.006604 0.004292
vt 0.570977 0.991877
vt 0.570977 0.758315
vt 0.336144 0.758315
vt 0.336144 0.991877
vt 0.993317 0.000797
vt 0.980457 0.000797
vt 0.980457 0.993018
vt 0.993317 0.993018
vt 0.993317 0.993018
vt 0.980457 0.993018
vt 0.980457 0.000797
vt 0.993317 0.000797
vt 0.688053 0.747040
vt 0.006604 0.747040
vt 0.980457 0.000797
vt 0.993317 0.000797
vt 0.993317 0.993018
vt 0.980457 0.993018
vt 0.993317 0.000797
vt 0.993317 0.993018
vt 0.980457 0.993018
vt 0.980457 0.000797
vt 0.993317 0.993018
vt 0.993317 0.000797
vt 0.980457 0.000797
vt 0.980457 0.993018
vt 0.678780 0.944170
vt 0.691641 0.944170
vt 0.993317 0.000797
vt 0.980457 0.000797
vt 0.980457 0.993018
vt 0.993317 0.993018
vt 0.691641 0.955566
vt 0.678780 0.955566
vt 0.678780 0.955566
vt 0.691641 0.955566
vt 0.691641 0.944170
vt 0.678780 0.944170
vt 0.691640 0.944170
vt 0.691640 0.955566
vt 0.678780 0.955566
vt 0.678780 0.944170
vt 0.691641 0.955566
vt 0.691641 0.944170
vt 0.678780 0.944170
vt 0.678780 0.955566
vt 0.980457 0.000797
vt 0.980457 0.993018
vt 0.993317 0.993018
vt 0.993317 0.000797
vt 0.993317 0.000797
vt 0.993317 0.993018
vt 0.980457 0.993018
vt 0.980457 0.000797
vt 0.860263 0.992841
vt 0.866080 0.755276
vt 0.915571 0.755276
vt 0.921388 0.992841
vt 0.787643 0.994045
vt 0.814146 0.755472
vt 0.854466 0.755472
vt 0.837440 0.994045
vt 0.921388 0.992841
vt 0.915571 0.755276
vt 0.866080 0.755276
vt 0.860263 0.992841
vt 0.837440 0.994045
vt 0.854466 0.755472
vt 0.814146 0.755472
vt 0.787643 0.994045
vt 0.130815 0.850828
vt 0.202217 0.850828
vt 0.202217 0.927077
vt 0.130815 0.927077
vt 0.202217 0.850828
vt 0.130815 0.850828
vt 0.130815 0.927077
vt 0.202217 0.927077
vt 0.872874 0.485504
vt 0.908777 0.485504
vt 0.822402 0.484557
vt 0.851651 0.484557
vt 0.908777 0.485504
vt 0.872874 0.485504
vt 0.851651 0.484557
vt 0.822402 0.484557
vt 0.866080 0.210112
vt 0.860263 0.013229
vt 0.921388 0.013228
vt 0.915571 0.210112
vt 0.832701 0.207998
vt 0.792381 0.207997
vt 0.787643 0.010280
vt 0.837440 0.010280
vt 0.866080 0.210112
vt 0.915571 0.210112
vt 0.921388 0.013228
vt 0.860263 0.013229
vt 0.792381 0.207997
vt 0.832701 0.207998
vt 0.837440 0.010280
vt 0.787643 0.010280
vt 0.860263 0.992841
vt 0.866080 0.755276
vt 0.915571 0.755276
vt 0.921388 0.992841
vt 0.787643 0.994045
vt 0.814146 0.755472
vt 0.854466 0.755472
vt 0.837440 0.994045
vt 0.921388 0.992841
vt 0.915571 0.755276
vt 0.866080 0.755276
vt 0.860263 0.992841
vt 0.837440 0.994045
vt 0.854466 0.755472
vt 0.814146 0.755472
vt 0.787643 0.994045
vt 0.130815 0.850828
vt 0.202217 0.850828
vt 0.202217 0.927077
vt 0.130815 0.927077
vt 0.202217 0.850828
vt 0.130815 0.850828
vt 0.130815 0.927077
vt 0.202217 0.927077
vt 0.872874 0.485504
vt 0.908777 0.485504
vt 0.822402 0.484557
vt 0.851651 0.484557
vt 0.908777 0.485504
vt 0.872874 0.485504
vt 0.851651 0.484557
vt 0.822402 0.484557
vt 0.866080 0.210112
vt 0.860263 0.013229
vt 0.921388 0.013228
vt 0.915571 0.210112
vt 0.832701 0.207998
vt 0.792381 0.207997
vt 0.787643 0.010280
vt 0.837440 0.010280
vt 0.866080 0.210112
vt 0.915571 0.210112
vt 0.921388 0.013228
vt 0.860263 0.013229
vt 0.792381 0.207997
vt 0.832701 0.207998
vt 0.837440 0.010280
vt 0.787643 0.010280
vt 0.860263 0.992841
vt 0.866080 0.755276
vt 0.915571 0.755276
vt 0.921388 0.992841
vt 0.787643 0.994045
vt 0.814146 0.755472
vt 0.854466 0.755472
vt 0.837440 0.994045
vt 0.921388 0.992841
vt 0.915571 0.755276
vt 0.866080 0.755276
vt 0.860263 0.992841
vt 0.837440 0.994045
vt 0.854466 0.755472
vt 0.814146 0.755472
vt 0.787643 0.994045
vt 0.130815 0.850828
vt 0.202217 0.850828
vt 0.202217 0.927077
vt 0.130815 0.927077
vt 0.202217 0.850828
vt 0.130815 0.850828
vt 0.130815 0.927077
vt 0.202217 0.927077
vt 0.872874 0.485504
vt 0.908777 0.485504
vt 0.822402 0.484557
vt 0.851651 0.484557
vt 0.908777 0.485504
vt 0.872874 0.485504
vt 0.851651 0.484557
vt 0.822402 0.484557
vt 0.866080 0.210112
vt 0.860263 0.013229
vt 0.921388 0.013228
vt 0.915571 0.210112
vt 0.832701 0.207998
vt 0.792381 0.207997
vt 0.787643 0.010280
vt 0.837440 0.010280
vt 0.866080 0.210112
vt 0.915571 0.210112
vt 0.921388 0.013228
vt 0.860263 0.013229
vt 0.792381 0.207997
vt 0.832701 0.207998
vt 0.837440 0.010280
vt 0.787643 0.010280
vn 0.000000 1.000000 0.000000
vn 0.000000 1.000000 0.000000
vn 0.000000 1.000000 0.000000
vn 0.000000 1.000000 0.000000
vn 0.000000 0.000000 -1.000000
vn 0.000000 0.000000 -1.000000
vn 0.000000 0.000000 -1.000000
vn 0.000000 0.000000 -1.000000
vn 0.946090 0.247749 -0.208649
vn 0.946090 0.247749 -0.208649
vn 0.946090 0.247749 -0.208649
vn 0.946090 0.247749 -0.208649
vn -0.946090 0.247749 -0.208649
vn -0.946090 0.247749 -0.208649
vn -0.946090 0.247749 -0.208649
vn -0.946090 0.247749 -0.208649
vn 0.000000 0.000000 1.000000
vn 0.000000 0.000000 1.000000
vn 0.000000 0.000000 1.000000
vn 0.000000 0.000000 1.000000
vn 0.439068 0.898454 0.000000
vn 0.439068 0.898454 0.000000
vn 0.439068 0.898454 0.000000
vn 0.439068 0.898454 0.000000
vn 0.000000 0.000000 -1.000000
vn 0.000000 0.000000 -1.000000
vn 0.000000 0.000000 -1.000000
vn 0.000000 0.000000 -1.000000
vn -0.439075 -0.898450 0.000000
vn -0.439075 -0.898450 0.000000
vn -0.439075 -0.898450 0.000000
vn -0.439075 -0.898450 0.000000
vn 0.898451 -0.439075 0.000000
vn 0.898451 -0.439075 0.000000
vn 0.898451 -0.439075 0.000000
vn 0.898451 -0.439075 0.000000
vn -0.898451 0.439075 0.000000
vn -0.898451 0.439075 0.000000
vn -0.898451 0.439075 0.000000
vn -0.898451 0.439075 0.000000
vn -0.000001 0.000000 1.000000
vn -0.000001 0.000000 1.000000
vn -0.000001 0.000000 1.000000
vn -0.000001 0.000000 1.000000
vn -0.439077 0.898450 0.000000
vn -0.439077 0.898450 0.000000
vn -0.439077 0.898450 0.000000
vn -0.439077 0.898450 0.000000
vn 0.000000 0.000000 -1.000000
vn 0.000000 0.000000 -1.000000
vn 0.000000 0.000000 -1.000000
vn 0.000000 0.000000 -1.000000
vn 0.439072 -0.898452 0.000000
vn 0.439072 -0.898452 0.000000
vn 0.439072 -0.898452 0.000000
vn 0.439072 -0.898452 0.000000
vn -0.898451 -0.439075 0.000000
vn -0.898451 -0.439075 0.000000
vn -0.898451 -0.439075 0.000000
vn -0.898451 -0.439075 0.000000
vn 0.898450 0.439075 0.000000
vn 0.898450 0.439075 0.000000
vn 0.898450 0.439075 0.000000
vn 0.898450 0.439075 0.000000
vn 0.058384 0.000000 0.998294
vn 0.038862 0.000000 0.999245
vn 0.038862 0.000000 0.999245
vn 0.058384 0.000000 0.998294
vn 0.010456 0.999945 0.000000
vn 0.010590 0.999944 0.000000
vn 0.010598 0.999944 0.000000
vn 0.010456 0.999945 0.000000
vn -0.037544 0.000000 -0.999295
vn -0.017699 0.000000 -0.999843
vn -0.017699 0.000000 -0.999843
vn -0.037544 0.000000 -0.999295
vn 0.010456 -0.999945 0.000000
vn 0.010598 -0.999944 0.000000
vn 0.010590 -0.999944 0.000000
vn 0.010456 -0.999945 0.000000
vn 1.000000 0.000000 0.000000
vn 1.000000 0.000000 0.000000
vn 1.000000 0.000000 0.000000
vn 1.000000 0.000000 0.000000
vn -1.000000 0.000000 0.000000
vn -1.000000 0.000000 0.000000
vn -1.000000 0.000000 0.000000
vn -1.000000 0.000000 0.000000
vn 0.038862 0.000000 0.999245
vn -0.020919 0.000000 0.999781
vn -0.020919 0.000000 0.999781
vn 0.038862 0.000000 0.999245
vn 0.010598 0.999944 0.000000
vn 0.010590 0.999944 0.000000
vn -0.000219 1.000000 0.000000
vn 0.000234 1.000000 0.000000
vn -0.017699 0.000000 -0.999843
vn -0.017699 0.000000 -0.999843
vn 0.020922 0.000000 -0.999781
vn 0.020922 0.000000 -0.999781
vn 0.010590 -0.999944 0.000000
vn 0.010598 -0.999944 0.000000
vn 0.000234 -1.000000 0.000000
vn -0.000219 -1.000000 0.000000
vn -0.035446 0.000000 0.999372
vn -0.012616 0.000000 0.999920
vn -0.012616 0.000000 0.999920
vn -0.035446 0.000000 0.999372
vn -0.011524 0.999934 0.000000
vn -0.011575 0.999933 0.000000
vn -0.012616 0.999920 0.000000
vn -0.012616 0.999920 0.000000
vn 0.012368 0.000000 -0.999924
vn 0.012368 0.000000 -0.999924
vn -0.012616 0.000000 -0.999920
vn -0.012616 0.000000 -0.999920
vn -0.011575 -0.999933 0.000000
vn -0.011524 -0.999934 0.000000
vn -0.012616 -0.999920 0.000000
vn -0.012616 -0.999920 0.000000
vn -0.020919 0.000000 0.999781
vn -0.035446 0.000000 0.999372
vn -0.035446 0.000000 0.999372
vn -0.020919 0.000000 0.999781
vn 0.000234 1.000000 0.000000
vn -0.000219 1.000000 0.000000
vn -0.011575 0.999933 0.000000
vn -0.011524 0.999934 0.000000
vn 0.020922 0.000000 -0.999781
vn 0.020922 0.000000 -0.999781
vn 0.012368 0.000000 -0.999924
vn 0.012368 0.000000 -0.999924
vn -0.000219 -1.000000 0.000000
vn 0.000234 -1.000000 0.000000
vn -0.011524 -0.999934 0.000000
vn -0.011575 -0.999933 0.000000
vn 0.000205 -0.123536 0.992340
vn 0.000137 -0.082502 0.996591
vn 0.000137 -0.082502 0.996591
vn 0.000205 -0.123536 0.992340
vn 0.999788 -0.020593 0.000000
vn 0.999782 -0.020879 0.000000
vn 0.999782 -0.020896 0.000000
vn 0.999788 -0.020593 0.000000
vn -0.000132 0.079719 -0.996817
vn -0.000063 0.037653 -0.999291
vn -0.000063 0.037653 -0.999291
vn -0.000132 0.079719 -0.996817
vn -0.999714 -0.023913 0.000000
vn -0.999707 -0.024215 0.000000
vn -0.999707 -0.024199 0.000000
vn -0.999714 -0.023913 0.000000
vn 0.001660 -0.999999 0.000000
vn 0.001660 -0.999999 0.000000
vn 0.001660 -0.999999 0.000000
vn 0.001660 -0.999999 0.000000
vn -0.001660 0.999999 0.000000
vn -0.001660 0.999999 0.000000
vn -0.001660 0.999999 0.000000
vn -0.001660 0.999999 0.000000
vn 0.000137 -0.082502 0.996591
vn -0.000074 0.044494 0.999010
vn -0.000074 0.044494 0.999010
vn 0.000137 -0.082502 0.996591
vn 0.999782 -0.020896 0.000000
vn 0.999782 -0.020879 0.000000
vn 0.999998 0.002126 0.000000
vn 0.999999 0.001162 0.000000
vn -0.000063 0.037653 -0.999291
vn -0.000063 0.037653 -0.999291
vn 0.000074 -0.044501 -0.999009
vn 0.000074 -0.044501 -0.999009
vn -0.999707 -0.024199 0.000000
vn -0.999707 -0.024215 0.000000
vn -0.999998 -0.002158 0.000000
vn -0.999999 -0.001195 0.000000
vn -0.000125 0.075285 0.997162
vn -0.000045 0.026847 0.999640
vn -0.000045 0.026847 0.999640
vn -0.000125 0.075285 0.997162
vn 0.999657 0.026185 0.000000
vn 0.999654 0.026292 0.000000
vn 0.999594 0.028507 0.000000
vn 0.999594 0.028507 0.000000
vn 0.000044 -0.026320 -0.999654
vn 0.000044 -0.026320 -0.999654
vn -0.000045 0.026847 -0.999640
vn -0.000045 0.026847 -0.999640
vn -0.999736 0.022973 0.000000
vn -0.999739 0.022865 0.000000
vn -0.999683 0.025188 0.000000
vn -0.999683 0.025188 0.000000
vn -0.000074 0.044494 0.999010
vn -0.000125 0.075285 0.997162
vn -0.000125 0.075285 0.997162
vn -0.000074 0.044494 0.999010
vn 0.999999 0.001162 0.000000
vn 0.999998 0.002126 0.000000
vn 0.999654 0.026292 0.000000
vn 0.999657 0.026185 0.000000
vn 0.000074 -0.044501 -0.999009
vn 0.000074 -0.044501 -0.999009
vn 0.000044 -0.026320 -0.999654
vn 0.000044 -0.026320 -0.999654
vn -0.999999 -0.001195 0.000000
vn -0.999998 -0.002158 0.000000
vn -0.999739 0.022865 0.000000
vn -0.999736 0.022973 0.000000
vn 0.000205 -0.123536 0.992340
vn 0.000137 -0.082502 0.996591
vn 0.000137 -0.082502 0.996591
vn 0.000205 -0.123536 0.992340
vn 0.999788 -0.020593 0.000000
vn 0.999782 -0.020879 0.000000
vn 0.999782 -0.020896 0.000000
vn 0.999788 -0.020593 0.000000
vn -0.000132 0.079719 -0.996817
vn -0.000063 0.037653 -0.999291
vn -0.000063 0.037653 -0.999291
vn -0.000132 0.079719 -0.996817
vn -0.999714 -0.023913 0.000000
vn -0.999707 -0.024215 0.000000
vn -0.999707 -0.024199 0.000000
vn -0.999714 -0.023913 0.000000
vn 0.001660 -0.999999 0.000000
vn 0.001660 -0.999999 0.000000
vn 0.001660 -0.999999 0.000000
vn 0.001660 -0.999999 0.000000
vn -0.001660 0.999999 0.000000
vn -0.001660 0.999999 0.000000
vn -0.001660 0.999999 0.000000
vn -0.001660 0.999999 0.000000
vn 0.000137 -0.082502 0.996591
vn -0.000074 0.044494 0.999010
vn -0.000074 0.044494 0.999010
vn 0.000137 -0.082502 0.996591
vn 0.999782 -0.020896 0.000000
vn 0.999782 -0.020879 0.000000
vn 0.999998 0.002126 0.000000
vn 0.999999 0.001162 0.000000
vn -0.000063 0.037653 -0.999291
vn -0.000063 0.037653 -0.999291
vn 0.000074 -0.044501 -0.999009
vn 0.000074 -0.044501 -0.999009
vn -0.999707 -0.024199 0.000000
vn -0.999707 -0.024215 0.000000
vn -0.999998 -0.002158 0.000000
vn -0.999999 -0.001195 0.000000
vn -0.000125 0.075285 0.997162
vn -0.000045 0.026847 0.999640
vn -0.000045 0.026847 0.999640
vn -0.000125 0.075285 0.997162
vn 0.999657 0.026185 0.000000
vn 0.999654 0.026292 0.000000
vn 0.999594 0.028507 0.000000
vn 0.999594 0.028507 0.000000
vn 0.000044 -0.026320 -0.999654
vn 0.000044 -0.026320 -0.999654
vn -0.000045 0.026847 -0.999640
vn -0.000045 0.026847 -0.999640
vn -0.999736 0.022973 0.000000
vn -0.999739 0.022865 0.000000
vn -0.999683 0.025188 0.000000
vn -0.999683 0.025188 0.000000
vn -0.000074 0.044494 0.999010
vn -0.000125 0.075285 0.997162
vn -0.000125 0.075285 0.997162
vn -0.000074 0.044494 0.999010
vn 0.999999 0.001162 0.000000
vn 0.999998 0.002126 0.000000
vn 0.999654 0.026292 0.000000
vn 0.999657 0.026185 0.000000
vn 0.000074 -0.044501 -0.999009
vn 0.000074 -0.044501 -0.999009
vn 0.000044 -0.026320 -0.999654
vn 0.000044 -0.026320 -0.999654
vn -0.999999 -0.001195 0.000000
vn -0.999998 -0.002158 0.000000
vn -0.999739 0.022865 0.000000
vn -0.999736 0.022973 0.000000
s off
usemtl Spit:lambert4SG
f 5/5/1 6/6/2 8/23/3 7/24/4
f 7/7/5 8/8/6 2/9/7 1/10/8
f 2/1/9 8/2/10 6/3/11 4/4/12
f 7/11/13 1/12/14 3/13/15 5/14/16
f 9/15/17 10/16/18 12/17/19 11/18/20
f 11/37/21 12/38/22 14/43/23 13/44/24
f 13/19/25 14/20/26 16/21/27 15/22/28
f 15/45/29 16/46/30 10/47/31 9/48/32
f 10/25/33 16/26/34 14/27/35 12/28/36
f 15/39/37 9/40/38 11/41/39 13/42/40
f 17/29/41 20/30/42 19/31/43 18/32/44
f 20/49/45 22/50/46 21/51/47 19/52/48
f 22/33/49 24/34/50 23/35/51 21/36/52
f 24/53/53 17/54/54 18/55/55 23/56/56
f 18/57/57 19/58/58 21/59/59 23/60/60
f 24/61/61 22/62/62 20/63/63 17/64/64
f 25/65/65 33/66/66 34/67/67 27/68/68
f 27/69/69 34/70/70 35/71/71 29/72/72
f 29/73/73 35/74/74 36/75/75 31/76/76
f 31/77/77 36/78/78 33/79/79 25/80/80
f 26/81/81 32/82/82 30/83/83 28/84/84
f 31/85/85 25/86/86 27/87/87 29/88/88
f 33/66/89 41/89/90 42/90/91 34/67/92
f 35/71/93 34/70/94 42/91/95 43/92/96
f 36/75/97 35/74/98 43/93/99 44/94/100
f 33/79/101 36/78/102 44/95/103 41/96/104
f 37/97/105 26/98/106 28/99/107 38/100/108
f 39/101/109 38/102/110 28/103/111 30/104/112
f 40/105/113 39/106/114 30/107/115 32/108/116
f 37/109/117 40/110/118 32/111/119 26/112/120
f 41/89/121 37/97/122 38/100/123 42/90/124
f 43/92/125 42/91/126 38/102/127 39/101/128
f 44/94/129 43/93/130 39/106/131 40/105/132
f 41/96/133 44/95/134 40/110/135 37/109/136
f 45/113/137 53/114/138 54/115/139 47/116/140
f 47/117/141 54/118/142 55/119/143 49/120/144
f 49/121/145 55/122/146 56/123/147 51/124/148
f 51/125/149 56/126/150 53/127/151 45/128/152
f 46/129/153 52/130/154 50/131/155 48/132/156
f 51/133/157 45/134/158 47/135/159 49/136/160
f 53/114/161 61/137/162 62/138/163 54/115/164
f 55/119/165 54/118/166 62/139/167 63/140/168
f 56/123/169 55/122/170 63/141/171 64/142/172
f 53/127/173 56/126/174 64/143/175 61/144/176
f 57/145/177 46/146/178 48/147/179 58/148/180
f 59/149/181 58/150/182 48/151/183 50/152/184
f 60/153/185 59/154/186 50/155/187 52/156/188
f 57/157/189 60/158/190 52/159/191 46/160/192
f 61/137/193 57/145/194 58/148/195 62/138/196
f 63/140/197 62/139/198 58/150/199 59/149/200
f 64/142/201 63/141/202 59/154/203 60/153/204
f 61/144/205 64/143/206 60/158/207 57/157/208
f 65/161/209 73/162/210 74/163/211 67/164/212
f 67/165/213 74/166/214 75/167/215 69/168/216
f 69/169/217 75/170/218 76/171/219 71/172/220
f 71/173/221 76/174/222 73/175/223 65/176/224
f 66/177/225 72/178/226 70/179/227 68/180/228
f 71/181/229 65/182/230 67/183/231 69/184/232
f 73/162/233 81/185/234 82/186/235 74/163/236
f 75/167/237 74/166/238 82/187/239 83/188/240
f 76/171/241 75/170/242 83/189/243 84/190/244
f 73/175/245 76/174/246 84/191/247 81/192/248
f 77/193/249 66/194/250 68/195/251 78/196/252
f 79/197/253 78/198/254 68/199/255 70/200/256
f 80/201/257 79/202/258 70/203/259 72/204/260
f 77/205/261 80/206/262 72/207/263 66/208/264
f 81/185/265 77/193/266 78/196/267 82/186/268
f 83/188/269 82/187/270 78/198/271 79/197/272
f 84/190/273 83/189/274 79/202/275 80/201/276
f 81/192/277 84/191/278 80/206/279 77/205/280
