# Blender v2.76 (sub 0) OBJ File: ''
# www.blender.org
mtllib tent.mtl
o Mesh06_Mesh06.001
v 1.526438 1.076526 0.498330
v 1.532614 0.818314 0.466183
v 1.581518 0.818396 0.466183
v 1.526438 1.076526 0.437930
v 1.532614 0.818314 0.466183
v 1.526438 1.076526 0.498330
v 1.532614 0.818314 0.417279
v 1.532614 0.818314 0.466183
v 1.526438 1.076526 0.437930
v 1.532614 0.818314 0.417279
v 1.539814 0.525098 0.420693
v 1.532614 0.818314 0.466183
v 1.532614 0.818314 0.417279
v 1.575292 0.525157 0.420693
v 1.539814 0.525098 0.420693
v 1.581518 0.818396 0.417279
v 1.581518 0.818396 0.417279
v 1.575292 0.525157 0.456170
v 1.575292 0.525157 0.420693
v 1.581518 0.818396 0.417279
v 1.581518 0.818396 0.466183
v 1.575292 0.525157 0.456170
v 1.581518 0.818396 0.417279
v 1.586837 1.076626 0.498330
v 1.581518 0.818396 0.466183
v 1.581518 0.818396 0.417279
v 1.586837 1.076626 0.437930
v 1.586837 1.076626 0.498330
v 1.586837 1.076626 0.437930
v 1.581518 0.818396 0.417279
v 1.532614 0.818314 0.417279
v 1.526438 1.076526 0.437930
v 1.586837 1.076626 0.437930
v 1.526438 1.076526 0.437930
v 1.586837 1.076626 0.498330
v 1.526438 1.076526 0.498330
v 1.586837 1.076626 0.498330
v 1.526438 1.076526 0.498330
v 1.581518 0.818396 0.466183
v 1.581518 0.818396 0.466183
v 1.532614 0.818314 0.466183
v 1.575292 0.525157 0.456170
v 1.539814 0.525098 0.456170
v 1.575292 0.525157 0.456170
v 1.539814 0.525098 0.420693
v 1.539814 0.525098 0.456170
v 1.532614 0.818314 0.466183
v 1.539814 0.525098 0.420693
v 1.533598 0.225750 0.443677
v 1.539814 0.525098 0.456170
v 1.539814 0.525098 0.420693
v 1.582502 0.225831 0.443677
v 1.533598 0.225750 0.443677
v 1.575292 0.525157 0.420693
v 1.582502 0.225831 0.443677
v 1.539814 0.525098 0.420693
v 1.575292 0.525157 0.420693
v 1.582502 0.225831 0.492582
v 1.582502 0.225831 0.443677
v 1.575292 0.525157 0.420693
v 1.575292 0.525157 0.456170
v 1.582502 0.225831 0.492582
v 1.575292 0.525157 0.456170
v 1.539814 0.525098 0.456170
v 1.582502 0.225831 0.492582
v 1.539814 0.525098 0.456170
v 1.533598 0.225750 0.492582
v 1.533598 0.225750 0.443677
v 1.533598 0.225750 0.492582
v 1.539814 0.525098 0.456170
v 1.528206 0.011738 0.437930
v 1.533598 0.225750 0.492582
v 1.533598 0.225750 0.443677
v 1.528206 0.011738 0.437930
v 1.528206 0.011738 0.498329
v 1.533598 0.225750 0.492582
v 1.588605 0.011838 0.437930
v 1.528206 0.011738 0.498329
v 1.528206 0.011738 0.437930
v 1.588605 0.011838 0.498329
v 1.533598 0.225750 0.492582
v 1.528206 0.011738 0.498329
v 1.588605 0.011838 0.498329
v 1.582502 0.225831 0.492582
v 1.582502 0.225831 0.443677
v 1.582502 0.225831 0.492582
v 1.588605 0.011838 0.498329
v 1.588605 0.011838 0.437930
v 1.582502 0.225831 0.443677
v 1.588605 0.011838 0.498329
v 1.582502 0.225831 0.443677
v 1.588605 0.011838 0.437930
v 1.533598 0.225750 0.443677
v 1.533598 0.225750 0.443677
v 1.528206 0.011738 0.437930
vt 0.835938 0.945312
vt 0.804688 0.726562
vt 0.890625 0.726562
vt 0.773438 0.945312
vt 0.742188 0.726562
vt 0.773438 0.476562
vt 0.835938 0.476562
vt 0.835938 0.734375
vt 0.859375 0.476562
vt 0.953125 0.945312
vt 0.859375 0.960938
vt 0.125000 0.929688
vt 0.125000 0.843750
vt 0.210938 0.929688
vt 0.210938 0.843750
vt 0.804688 0.460938
vt 0.773438 0.195312
vt 0.859375 0.210938
vt 0.921875 0.195312
vt 0.835938 0.195312
vt 0.773438 0.015625
vt 0.835938 0.000000
vt 0.953125 0.015625
vt 0.859375 0.023438
vn 0.000200 -0.123500 0.992300
vn -0.999700 -0.023900 0.000000
vn -0.999700 -0.024500 0.000000
vn 0.000000 -0.011600 -0.999900
vn 0.999800 -0.021200 0.000000
vn 0.999800 -0.020600 0.000000
vn -0.000100 0.079700 -0.996800
vn -0.001700 1.000000 0.000000
vn 0.000100 -0.034100 0.999400
vn -0.999700 -0.024600 0.000000
vn -0.999800 0.020800 0.000000
vn 0.000100 -0.076600 -0.997100
vn 0.999700 0.024100 0.000000
vn -0.000200 0.120800 0.992700
vn -0.999700 0.025200 0.000000
vn 0.001700 -1.000000 -0.000000
vn -0.000000 0.026800 0.999600
vn 0.999600 0.028500 0.000000
vn -0.000000 0.026800 -0.999600
usemtl tent
s off
f 1/1/1 2/2/1 3/3/1
f 4/4/2 5/2/2 6/1/2
f 7/5/2 8/2/2 9/4/2
f 10/5/3 11/6/3 12/2/3
f 13/5/4 14/7/4 15/6/4
f 16/8/4 14/7/4 13/5/4
f 17/8/5 18/9/5 19/7/5
f 20/8/5 21/3/5 22/9/5
f 23/8/6 24/10/6 25/3/6
f 26/8/6 27/11/6 28/10/6
f 29/11/7 30/8/7 31/5/7
f 29/11/7 31/5/7 32/4/7
f 33/12/8 34/13/8 35/14/8
f 35/14/8 34/13/8 36/15/8
f 37/10/1 38/1/1 39/3/1
f 40/3/9 41/2/9 42/9/9
f 41/2/9 43/16/9 44/9/9
f 45/6/10 46/16/10 47/2/10
f 48/6/11 49/17/11 50/16/11
f 51/6/12 52/18/12 53/17/12
f 54/7/12 55/18/12 56/6/12
f 57/7/13 58/19/13 59/18/13
f 60/7/13 61/9/13 62/19/13
f 63/9/14 64/16/14 65/19/14
f 66/16/14 67/20/14 65/19/14
f 68/17/11 69/20/11 70/16/11
f 71/21/15 72/20/15 73/17/15
f 74/21/15 75/22/15 76/20/15
f 77/14/16 78/13/16 79/15/16
f 80/12/16 78/13/16 77/14/16
f 81/20/17 82/22/17 83/23/17
f 84/19/17 81/20/17 83/23/17
f 85/18/18 86/19/18 87/23/18
f 88/24/18 89/18/18 90/23/18
f 91/18/19 92/24/19 93/17/19
f 94/17/19 92/24/19 95/21/19
o Mesh05_Mesh05.002
v -0.519644 1.076626 0.437930
v -0.580043 1.076526 0.437930
v -0.519644 1.076626 0.498330
v -0.580043 1.076526 0.498330
v -0.517876 0.011838 0.437930
v -0.578275 0.011738 0.498329
v -0.578275 0.011738 0.437930
v -0.517876 0.011838 0.498329
v -0.580043 1.076526 0.498330
v -0.573867 0.818314 0.466183
v -0.524963 0.818396 0.466183
v -0.580043 1.076526 0.437930
v -0.573867 0.818314 0.466183
v -0.580043 1.076526 0.498330
v -0.573867 0.818314 0.417279
v -0.573867 0.818314 0.466183
v -0.580043 1.076526 0.437930
v -0.573867 0.818314 0.417279
v -0.566666 0.525098 0.420693
v -0.573867 0.818314 0.466183
v -0.573867 0.818314 0.417279
v -0.531190 0.525157 0.420693
v -0.566666 0.525098 0.420693
v -0.524963 0.818396 0.417279
v -0.524963 0.818396 0.417279
v -0.531190 0.525157 0.456170
v -0.531190 0.525157 0.420693
v -0.524963 0.818396 0.417279
v -0.524963 0.818396 0.466183
v -0.531190 0.525157 0.456170
v -0.524963 0.818396 0.417279
v -0.519644 1.076626 0.498330
v -0.524963 0.818396 0.466183
v -0.524963 0.818396 0.417279
v -0.519644 1.076626 0.437930
v -0.519644 1.076626 0.498330
v -0.519644 1.076626 0.437930
v -0.524963 0.818396 0.417279
v -0.573867 0.818314 0.417279
v -0.573867 0.818314 0.417279
v -0.580043 1.076526 0.437930
v -0.519644 1.076626 0.498330
v -0.580043 1.076526 0.498330
v -0.524963 0.818396 0.466183
v -0.524963 0.818396 0.466183
v -0.573867 0.818314 0.466183
v -0.531190 0.525157 0.456170
v -0.566666 0.525098 0.456170
v -0.531190 0.525157 0.456170
v -0.566666 0.525098 0.420693
v -0.566666 0.525098 0.456170
v -0.573867 0.818314 0.466183
v -0.566666 0.525098 0.420693
v -0.572883 0.225750 0.443677
v -0.566666 0.525098 0.456170
v -0.566666 0.525098 0.420693
v -0.523979 0.225831 0.443677
v -0.572883 0.225750 0.443677
v -0.531190 0.525157 0.420693
v -0.566666 0.525098 0.420693
v -0.531190 0.525157 0.420693
v -0.523979 0.225831 0.492582
v -0.523979 0.225831 0.443677
v -0.531190 0.525157 0.420693
v -0.531190 0.525157 0.456170
v -0.523979 0.225831 0.492582
v -0.531190 0.525157 0.456170
v -0.566666 0.525098 0.456170
v -0.523979 0.225831 0.492582
v -0.566666 0.525098 0.456170
v -0.572883 0.225750 0.492582
v -0.523979 0.225831 0.492582
v -0.572883 0.225750 0.443677
v -0.572883 0.225750 0.492582
v -0.566666 0.525098 0.456170
v -0.578275 0.011738 0.437930
v -0.572883 0.225750 0.492582
v -0.572883 0.225750 0.443677
v -0.578275 0.011738 0.437930
v -0.578275 0.011738 0.498329
v -0.572883 0.225750 0.492582
v -0.572883 0.225750 0.492582
v -0.578275 0.011738 0.498329
v -0.517876 0.011838 0.498329
v -0.523979 0.225831 0.492582
v -0.523979 0.225831 0.443677
v -0.523979 0.225831 0.492582
v -0.517876 0.011838 0.498329
v -0.517876 0.011838 0.437930
v -0.523979 0.225831 0.443677
v -0.517876 0.011838 0.498329
v -0.523979 0.225831 0.443677
v -0.517876 0.011838 0.437930
v -0.572883 0.225750 0.443677
v -0.578275 0.011738 0.437930
vt 0.125000 0.929688
vt 0.125000 0.843750
vt 0.210938 0.929688
vt 0.210938 0.843750
vt 0.742188 0.968750
vt 0.796875 0.765625
vt 0.867188 0.742188
vt 0.812500 1.000000
vt 0.835938 0.781250
vt 0.851562 0.523438
vt 0.906250 0.515625
vt 0.906250 0.765625
vt 0.867188 0.492188
vt 0.835938 0.945312
vt 0.906250 0.976562
vt 0.812500 0.507812
vt 0.812500 0.257812
vt 0.890625 0.250000
vt 0.835938 0.226562
vt 0.757812 0.234375
vt 0.812500 0.085938
vt 0.742188 0.054688
vt 0.835938 0.031250
vt 0.906250 0.062500
vn -0.001700 1.000000 0.000000
vn 0.001700 -1.000000 -0.000000
vn 0.000200 -0.123500 0.992300
vn -0.999700 -0.023900 0.000000
vn -0.999700 -0.024600 0.000000
vn 0.000000 -0.011600 -0.999900
vn 0.999800 -0.021200 0.000000
vn 0.999800 -0.020600 0.000000
vn -0.000100 0.079700 -0.996800
vn 0.000100 -0.034100 0.999400
vn -0.999800 0.020800 0.000000
vn 0.000100 -0.076600 -0.997100
vn 0.999700 0.024100 0.000000
vn -0.000200 0.120800 0.992700
vn -0.999700 0.025200 0.000000
vn -0.000000 0.026800 0.999600
vn 0.999600 0.028500 0.000000
vn -0.000000 0.026800 -0.999600
usemtl tent
s off
f 96/25/20 97/26/20 98/27/20
f 98/27/20 97/26/20 99/28/20
f 100/27/21 101/26/21 102/28/21
f 103/25/21 101/26/21 100/27/21
f 104/29/22 105/30/22 106/31/22
f 107/32/23 108/30/23 109/29/23
f 110/33/23 111/30/23 112/32/23
f 113/33/24 114/34/24 115/30/24
f 116/33/25 117/35/25 118/34/25
f 119/36/25 117/35/25 116/33/25
f 120/36/26 121/37/26 122/35/26
f 123/36/26 124/31/26 125/37/26
f 126/36/27 127/38/27 128/31/27
f 129/36/27 130/39/27 131/38/27
f 132/39/28 133/36/28 134/33/28
f 132/39/28 135/33/28 136/32/28
f 137/38/22 138/29/22 139/31/22
f 140/31/29 141/30/29 142/37/29
f 141/30/29 143/40/29 144/37/29
f 145/34/24 146/40/24 147/30/24
f 148/34/30 149/41/30 150/40/30
f 151/34/31 152/42/31 153/41/31
f 154/35/31 152/42/31 155/34/31
f 156/35/32 157/43/32 158/42/32
f 159/35/32 160/37/32 161/43/32
f 162/37/33 163/40/33 164/43/33
f 165/40/33 166/44/33 167/43/33
f 168/41/30 169/44/30 170/40/30
f 171/45/34 172/44/34 173/41/34
f 174/45/34 175/46/34 176/44/34
f 177/44/35 178/46/35 179/47/35
f 180/43/35 177/44/35 179/47/35
f 181/42/36 182/43/36 183/47/36
f 184/48/36 185/42/36 186/47/36
f 187/42/37 188/48/37 189/41/37
f 189/41/37 188/48/37 190/45/37
o Mesh04_Mesh04.002
v -0.086381 0.972856 0.530008
v -0.636042 0.918204 0.562154
v -0.086381 0.923952 0.530008
v -0.636042 0.978604 0.562154
v -0.636042 0.918204 0.501754
v -0.636042 0.918204 0.562154
v -0.636042 0.978604 0.562154
v -0.086381 0.923952 0.530008
v -0.636042 0.918204 0.562154
v -0.636042 0.918204 0.501754
v -0.086381 0.923952 0.481103
v -0.636042 0.978604 0.501754
v -0.086381 0.923952 0.481103
v -0.636042 0.918204 0.501754
v -0.086381 0.972856 0.481103
v -0.086381 0.972856 0.481103
v -0.636042 0.978604 0.501754
v -0.636042 0.978604 0.562154
v -0.636042 0.978604 0.501754
v -0.086381 0.972856 0.530008
v 0.537796 0.966142 0.519994
v -0.086381 0.972856 0.481103
v -0.086381 0.972856 0.530008
v 0.537796 0.966142 0.484517
v -0.086381 0.972856 0.481103
v 0.537796 0.966142 0.484517
v -0.086381 0.923952 0.481103
v 0.537796 0.930665 0.484517
v 1.174976 0.972856 0.507502
v 0.537796 0.930665 0.484517
v 0.537796 0.966142 0.484517
v 1.174976 0.923952 0.507502
v 1.630510 0.978604 0.501754
v 1.174976 0.923952 0.507502
v 1.174976 0.972856 0.507502
v 1.630510 0.918204 0.501754
v 1.630510 0.918204 0.501754
v 1.630510 0.978604 0.501754
v 1.630510 0.918204 0.562154
v 1.630510 0.978604 0.562154
v 1.630510 0.978604 0.501754
v 1.174976 0.972856 0.507502
v 1.630510 0.978604 0.562154
v 1.174976 0.972856 0.556406
v 1.174976 0.972856 0.507502
v 0.537796 0.966142 0.484517
v 1.174976 0.972856 0.556406
v 0.537796 0.966142 0.519994
v 1.174976 0.972856 0.556406
v 0.537796 0.966142 0.519994
v 0.537796 0.930665 0.519994
v 0.537796 0.966142 0.519994
v -0.086381 0.923952 0.530008
v 0.537796 0.930665 0.519994
v -0.086381 0.972856 0.530008
v 0.537796 0.930665 0.519994
v -0.086381 0.923952 0.530008
v 0.537796 0.930665 0.484517
v -0.086381 0.923952 0.481103
v 1.174976 0.923952 0.507502
v 0.537796 0.930665 0.519994
v 0.537796 0.930665 0.484517
v 1.174976 0.923952 0.556406
v 1.174976 0.923952 0.556406
v 1.630510 0.978604 0.562154
v 1.174976 0.972856 0.556406
v 1.174976 0.923952 0.556406
v 1.630510 0.918204 0.562154
v 1.630510 0.918204 0.562154
v 1.174976 0.923952 0.556406
v 1.630510 0.918204 0.501754
v 1.174976 0.923952 0.507502
vt 0.765625 0.257812
vt 0.835938 0.046875
vt 0.835938 0.242188
vt 0.765625 0.054688
vt 0.125000 0.843750
vt 0.125000 0.929688
vt 0.210938 0.929688
vt 0.765625 0.031250
vt 0.765625 0.234375
vt 0.710938 0.046875
vt 0.742188 0.242188
vt 0.210938 0.843750
vt 0.804688 0.500000
vt 0.765625 0.484375
vt 0.804688 0.484375
vt 0.835938 0.734375
vt 0.867188 0.726562
vt 0.835938 0.914062
vt 0.906250 0.906250
vt 0.906250 0.929688
vt 0.867188 0.750000
vt 0.835938 0.484375
vt 0.929688 0.734375
vt 0.960938 0.914062
vn 0.058400 -0.000000 0.998300
vn -1.000000 0.000000 0.000000
vn 0.010500 -0.999900 0.000000
vn -0.037500 0.000000 -0.999300
vn 0.010500 0.999900 0.000000
vn 0.010800 0.999900 0.000000
vn 0.005500 0.000000 -1.000000
vn 0.036000 0.000000 -0.999400
vn -0.012600 0.000000 -0.999900
vn 1.000000 0.000000 0.000000
vn -0.012600 0.999900 0.000000
vn -0.010500 0.999900 0.000000
vn -0.057100 0.000000 0.998400
vn 0.016000 0.000000 0.999900
vn 0.010800 -0.999900 0.000000
vn -0.010500 -0.999900 0.000000
vn -0.012600 0.000000 0.999900
vn -0.012600 -0.999900 0.000000
usemtl tent
s off
f 191/49/38 192/50/38 193/51/38
f 191/49/38 194/52/38 192/50/38
f 195/53/39 196/54/39 197/55/39
f 198/51/40 199/50/40 200/56/40
f 198/51/40 200/56/40 201/57/40
f 202/58/41 203/57/41 204/56/41
f 202/58/41 205/59/41 203/57/41
f 206/59/42 207/58/42 208/52/42
f 195/53/39 197/55/39 209/60/39
f 206/59/42 208/52/42 210/49/42
f 211/61/43 212/59/43 213/49/43
f 214/62/43 212/59/43 211/61/43
f 215/59/44 216/62/44 217/57/44
f 216/62/44 218/63/44 217/57/44
f 219/64/45 220/63/45 221/62/45
f 219/64/45 222/65/45 220/63/45
f 223/66/46 224/65/46 225/64/46
f 223/66/46 226/67/46 224/65/46
f 227/60/47 228/55/47 229/53/47
f 228/55/47 230/54/47 229/53/47
f 231/66/48 232/64/48 233/68/48
f 233/68/48 232/64/48 234/69/48
f 235/64/49 236/62/49 237/69/49
f 237/69/49 236/62/49 238/61/49
f 239/69/50 240/61/50 241/70/50
f 242/61/51 243/51/51 244/70/51
f 245/49/51 243/51/51 242/61/51
f 246/70/52 247/51/52 248/63/52
f 248/63/52 247/51/52 249/57/52
f 250/65/53 251/70/53 252/63/53
f 253/71/53 251/70/53 250/65/53
f 239/69/50 241/70/50 254/71/50
f 255/68/54 256/69/54 257/71/54
f 255/68/54 257/71/54 258/72/54
f 259/72/55 260/71/55 261/67/55
f 261/67/55 260/71/55 262/65/55
o Mesh03_Mesh03.002
v 1.522702 0.911465 0.069655
v 1.508318 0.904435 0.069655
v 1.960935 0.014740 0.069655
v 1.522702 0.911465 0.069655
v 1.508318 0.904435 0.055929
v 1.508318 0.904435 0.069655
v 1.522702 0.911465 0.055929
v 1.522702 0.911465 0.055929
v 1.946550 0.007710 0.055929
v 1.508318 0.904435 0.055929
v 1.960935 0.014740 0.055929
v 1.960935 0.014740 0.055929
v 1.522702 0.911465 0.055929
v 1.522702 0.911465 0.069655
v 1.960935 0.014740 0.069655
v 1.960935 0.014740 0.069655
v 1.946550 0.007710 0.069655
v 1.960935 0.014740 0.055929
v 1.946550 0.007710 0.069655
v 1.508318 0.904435 0.055929
v 1.946550 0.007710 0.069655
v 1.508318 0.904435 0.069655
v 1.946550 0.007710 0.055929
v 1.946550 0.007710 0.055929
vt 1.000000 1.000000
vt 0.968750 1.000000
vt 1.000000 0.000000
vt 0.992188 1.000000
vt 0.992188 0.992188
vt 0.968750 0.000000
vn 0.000000 -0.000000 1.000000
vn -0.439100 0.898400 0.000000
vn 0.000000 0.000000 -1.000000
vn 0.898500 0.439100 0.000000
vn 0.439100 -0.898400 -0.000000
vn -0.898500 -0.439100 0.000000
usemtl tent
s off
f 263/73/56 264/74/56 265/75/56
f 266/73/57 267/76/57 268/77/57
f 269/73/57 267/76/57 266/73/57
f 270/73/58 271/78/58 272/74/58
f 270/73/58 273/75/58 271/78/58
f 274/78/59 275/74/59 276/73/59
f 274/78/59 276/73/59 277/75/59
f 278/73/60 279/77/60 280/73/60
f 264/74/56 281/78/56 265/75/56
f 282/74/61 283/75/61 284/73/61
f 285/78/61 283/75/61 282/74/61
f 280/73/60 279/77/60 286/76/60
o Mesh02_Mesh02.002
v -0.530472 0.904435 0.069655
v -0.983089 0.014739 0.069655
v -0.968705 0.007709 0.069655
v -0.544857 0.911464 0.069655
v -0.983089 0.014739 0.055929
v -0.983089 0.014739 0.069655
v -0.544857 0.911464 0.069655
v -0.968705 0.007709 0.069655
v -0.983089 0.014739 0.069655
v -0.983089 0.014739 0.055929
v -0.968705 0.007709 0.055929
v -0.544857 0.911464 0.055929
v -0.968705 0.007709 0.055929
v -0.983089 0.014739 0.055929
v -0.530472 0.904435 0.055929
v -0.530472 0.904435 0.055929
v -0.544857 0.911464 0.055929
v -0.544857 0.911464 0.069655
v -0.544857 0.911464 0.055929
v -0.530472 0.904435 0.069655
v -0.530472 0.904435 0.055929
v -0.530472 0.904435 0.069655
v -0.968705 0.007709 0.069655
v -0.968705 0.007709 0.055929
vt 1.000000 0.000000
vt 0.968750 0.000000
vt 0.968750 1.000000
vt 1.000000 1.000000
vt 0.992188 0.984375
vt 0.976562 1.000000
vt 0.984375 1.000000
vt 1.000000 0.992188
vn -0.898500 0.439100 0.000000
vn 0.000000 0.000000 -1.000000
vn 0.898500 -0.439100 0.000000
vn 0.000000 -0.000000 1.000000
vn -0.439100 -0.898500 -0.000000
vn 0.439100 0.898500 0.000000
usemtl tent
s off
f 291/79/62 292/80/62 293/81/62
f 298/81/63 299/79/63 300/80/63
f 298/81/63 301/82/63 299/79/63
f 291/79/62 293/81/62 305/82/62
f 307/82/64 308/81/64 309/80/64
f 310/79/64 307/82/64 309/80/64
f 288/80/65 289/79/65 287/82/65 290/81/65
usemtl tent
f 294/83/66 295/84/66 296/85/66
f 294/83/66 296/85/66 297/86/66
f 302/86/67 303/85/67 304/84/67
f 302/86/67 304/84/67 306/83/67
o Mesh01_Mesh01.002
v 1.588957 0.903673 0.997654
v -0.594489 0.903673 -0.065931
v 1.588957 0.903673 -0.065931
v -0.594489 0.903673 0.997654
v 1.588957 0.903673 0.997654
v 1.588957 0.007945 0.997654
v -0.594489 0.903673 0.997654
v 1.588957 0.007945 0.997654
v 1.588957 0.903673 0.997654
v 1.588957 0.903673 -0.065931
v 1.588957 0.007945 0.997654
v 1.588957 0.903673 -0.065931
v 2.058079 0.007945 -0.065931
v -0.594489 0.007945 0.997654
v -0.594489 0.007945 0.997654
v -1.063611 0.007945 -0.065931
v -0.594489 0.903673 0.997654
v -0.594489 0.903673 0.997654
v -1.063611 0.007945 -0.065931
v -0.594489 0.903673 -0.065931
v 1.588957 0.903673 0.997654
v -0.594489 0.903673 -0.065931
v 1.588957 0.903673 -0.065931
v -0.594489 0.903673 0.997654
v 1.588957 0.903673 0.997654
v 1.588957 0.007945 0.997654
v -0.594489 0.903673 0.997654
v 1.588957 0.007945 0.997654
v 1.588957 0.903673 0.997654
v 1.588957 0.903673 -0.065931
v 1.588957 0.007945 0.997654
v 1.588957 0.903673 -0.065931
v 2.058079 0.007945 -0.065931
v -0.594489 0.007945 0.997654
v -0.594489 0.007945 0.997654
v -1.063611 0.007945 -0.065931
v -0.594489 0.903673 0.997654
v -0.594489 0.903673 0.997654
v -1.063611 0.007945 -0.065931
v -0.594489 0.903673 -0.065931
v 1.588957 0.903673 0.997654
v -0.594489 0.903673 -0.065931
v 1.588957 0.903673 -0.065931
v -0.594489 0.903673 0.997654
v 1.588957 0.903673 0.997654
v 1.588957 0.007945 0.997654
v -0.594489 0.903673 0.997654
v 1.588957 0.007945 0.997654
v 1.588957 0.903673 0.997654
v 1.588957 0.903673 -0.065931
v 1.588957 0.007945 0.997654
v 1.588957 0.903673 -0.065931
v 2.058079 0.007945 -0.065931
v -0.594489 0.007945 0.997654
v -0.594489 0.007945 0.997654
v -1.063611 0.007945 -0.065931
v -0.594489 0.903673 0.997654
v -0.594489 0.903673 0.997654
v -1.063611 0.007945 -0.065931
v -0.594489 0.903673 -0.065931
vt 0.703125 0.351562
vt 0.000000 0.000000
vt 0.703125 0.000000
vt 0.000000 0.351562
vt 0.000000 0.757812
vt 0.703125 0.757812
vt 0.585938 0.757812
vt 0.585938 1.000000
vt 0.320312 1.000000
vt 0.320312 0.757812
vn 0.000000 -1.000000 0.000000
vn 0.000000 -0.000000 -1.000000
vn -1.000000 0.000000 0.000000
vn -0.825100 -0.432100 -0.363900
vn 0.915000 -0.000000 -0.403600
vn 0.885900 -0.464000 0.000000
vn 0.000000 1.000000 -0.000000
vn 0.000000 0.000000 1.000000
vn 1.000000 0.000000 0.000000
vn 0.825100 0.432100 0.363900
vn -0.915000 0.000000 0.403600
vn -0.885900 0.464000 -0.000000
usemtl tent
s off
f 311/87/68 312/88/68 313/89/68
f 311/87/68 314/90/68 312/88/68
f 315/91/69 316/90/69 317/92/69
f 318/93/70 319/94/70 320/95/70
f 321/93/71 322/95/71 323/96/71
f 317/92/69 316/90/69 324/87/69
f 325/96/72 326/93/72 327/95/72
f 328/95/73 329/93/73 330/94/73
f 331/87/68 332/88/68 333/89/68
f 331/87/68 334/90/68 332/88/68
f 335/91/69 336/90/69 337/92/69
f 338/93/70 339/94/70 340/95/70
f 341/93/71 342/95/71 343/96/71
f 337/92/69 336/90/69 344/87/69
f 345/96/72 346/93/72 347/95/72
f 348/95/73 349/93/73 350/94/73
f 351/87/74 353/89/74 352/88/74
f 351/87/74 352/88/74 354/90/74
f 355/91/75 357/92/75 356/90/75
f 358/93/76 360/95/76 359/94/76
f 361/93/77 363/96/77 362/95/77
f 357/92/75 364/87/75 356/90/75
f 365/96/78 367/95/78 366/93/78
f 368/95/79 370/94/79 369/93/79
