# This file uses centimeters as units for non-parametric coordinates.

mtllib ShelfTier1.mtl
g default
v -1.735632 -0.767492 0.427236
v 0.003251 -0.767492 0.427236
v -1.735632 -0.767492 1.670345
v 0.003251 -0.767492 1.670345
v -1.735632 0.349527 1.670345
v 0.003251 0.349527 1.670345
v -1.735632 0.349527 0.427236
v 0.003251 0.349527 0.427236
v 1.708537 -2.195461 -0.423469
v 1.708537 -2.195461 -1.666579
v -0.030345 -2.195461 -1.666579
v -0.030345 -2.195461 -0.423469
v 1.708537 -1.078442 -1.666579
v -0.030345 -1.078442 -1.666579
v 1.708537 -1.078442 -0.423469
v -0.030345 -1.078442 -0.423469
v 1.052159 -2.569718 0.419888
v 1.925352 -2.569718 0.419888
v 1.052161 0.375868 0.419888
v 1.925353 0.375868 0.419888
v 1.052159 0.375868 -0.419888
v 1.925352 0.375868 -0.419888
v 1.052159 -2.569718 -0.419888
v 1.925352 -2.569718 -0.419888
v -1.948318 -2.628422 1.948314
v 1.948310 -2.628422 1.948314
v -1.948317 -2.206861 1.948314
v 1.948311 -2.206861 1.948314
v -1.948318 -2.206861 -1.948314
v 1.948310 -2.206861 -1.948314
v -1.948318 -2.628422 -1.948314
v 1.948310 -2.628422 -1.948314
v -1.948313 0.375998 1.948314
v 1.948315 0.375998 1.948314
v -1.948313 1.245400 1.948314
v 1.948316 1.245400 1.948314
v -1.948313 1.245400 -1.948314
v 1.948316 1.245400 -1.948314
v -1.948313 0.375998 -1.948314
v 1.948315 0.375998 -1.948314
v -1.181730 1.543542 0.430478
v -0.284943 1.384734 0.234795
v -1.151158 1.612093 0.514948
v -0.254371 1.453286 0.319265
v -1.151158 2.446056 -0.161857
v -0.254371 2.287248 -0.357540
v -1.181730 2.377504 -0.246327
v -0.284943 2.218696 -0.442010
v 1.115128 1.543542 0.430478
v 0.218341 1.384734 0.234795
v 0.187770 1.453286 0.319265
v 1.084557 1.612093 0.514948
v 0.187769 2.287248 -0.357540
v 1.084556 2.446056 -0.161857
v 0.218343 2.218696 -0.442010
v 1.115130 2.377504 -0.246327
v -0.197093 1.335395 0.173999
v 0.104095 1.335395 0.173999
v -0.197095 1.376795 0.225013
v 0.104092 1.376795 0.225013
v -0.197095 2.210757 -0.451793
v 0.104092 2.210757 -0.451793
v -0.197095 2.169357 -0.502806
v 0.104092 2.169357 -0.502806
v -1.094234 2.393311 -0.137516
v -0.253558 2.243461 -0.322161
v -1.094234 1.631925 0.480389
v -0.253558 1.482076 0.295744
v -1.067130 1.658254 0.512831
v -0.205591 1.584658 0.422146
v -1.067130 2.419639 -0.105074
v -0.205591 2.346044 -0.195759
v 1.026175 2.391786 -0.139395
v 0.187298 2.242649 -0.323161
v 0.187298 1.481264 0.294744
v 1.026175 1.630401 0.478510
v 0.131828 1.583847 0.421147
v 0.960348 1.656729 0.510952
v 0.131828 2.345232 -0.196759
v 0.960348 2.418114 -0.106953
v -0.096638 2.261509 -0.299922
v -0.196388 2.166754 -0.416681
v -0.196388 1.405368 0.201224
v -0.096638 1.500124 0.317983
v 0.024867 1.499160 0.316795
v 0.024867 2.260545 -0.301111
v 0.101968 2.165979 -0.417635
v 0.101968 1.404594 0.200270
v -0.034761 1.446229 0.251573
v -0.034761 2.207614 -0.366332
v -0.034602 2.165282 -0.418494
v -0.034602 1.403897 0.199412
v -1.949396 -0.971233 1.948314
v 1.947233 -0.971233 1.948314
v -1.949394 -0.772267 1.948314
v 1.947234 -0.772267 1.948314
v -1.949396 -0.772267 -1.948314
v 1.947233 -0.772267 -1.948314
v -1.949396 -0.971233 -1.948314
v 1.947233 -0.971233 -1.948314
v -1.926797 -2.569718 0.419888
v -1.053605 -2.569718 0.419888
v -1.926796 0.375868 0.419888
v -1.053603 0.375868 0.419888
v -1.926797 0.375868 -0.419888
v -1.053605 0.375868 -0.419888
v -1.926797 -2.569718 -0.419888
v -1.053605 -2.569718 -0.419888
vt 0.164343 0.350704
vt 0.418859 0.350704
vt 0.418859 0.513355
vt 0.164343 0.513355
vt 0.418859 0.675358
vt 0.164343 0.675358
vt 0.164343 0.675358
vt 0.418859 0.675358
vt 0.418859 0.837586
vt 0.164343 0.837586
vt 0.164343 0.997867
vt 0.418859 0.997867
vt 0.418859 0.837586
vt 0.164343 0.837586
vt 0.581453 0.513355
vt 0.581453 0.675358
vt 0.002339 0.675358
vt 0.002339 0.513355
vt 0.164343 0.350704
vt 0.164343 0.513355
vt 0.418859 0.513355
vt 0.418859 0.350704
vt 0.164343 0.675358
vt 0.418859 0.675358
vt 0.164343 0.675358
vt 0.164343 0.837586
vt 0.418859 0.837586
vt 0.418859 0.675358
vt 0.164343 0.997867
vt 0.164343 0.837586
vt 0.418859 0.837586
vt 0.418859 0.997867
vt 0.581453 0.513355
vt 0.581453 0.675358
vt 0.002339 0.675358
vt 0.002339 0.513355
vt 0.154564 0.029123
vt 0.225163 0.029123
vt 0.225163 0.278213
vt 0.154564 0.278213
vt 0.052362 0.083110
vt 0.129125 0.083110
vt 0.129125 0.151660
vt 0.052362 0.151660
vt 0.154564 0.278212
vt 0.225163 0.278212
vt 0.225163 0.029123
vt 0.154564 0.029123
vt 0.052362 0.151660
vt 0.129125 0.151660
vt 0.129125 0.083110
vt 0.052362 0.083110
vt 0.154564 0.029123
vt 0.225163 0.029123
vt 0.225163 0.278212
vt 0.154564 0.278212
vt 0.225163 0.029123
vt 0.154564 0.029123
vt 0.154564 0.278212
vt 0.225163 0.278212
vt 0.026072 0.024159
vt 0.353656 0.024159
vt 0.353656 0.059808
vt 0.026072 0.059808
vt 0.366221 0.018399
vt 0.693805 0.018399
vt 0.693805 0.345983
vt 0.366221 0.345983
vt 0.026072 0.059808
vt 0.353656 0.059808
vt 0.353656 0.024159
vt 0.026072 0.024159
vt 0.366221 0.345983
vt 0.693805 0.345983
vt 0.693805 0.018399
vt 0.366221 0.018399
vt 0.026072 0.024159
vt 0.353656 0.024159
vt 0.353656 0.059807
vt 0.026072 0.059807
vt 0.353656 0.024159
vt 0.026072 0.024159
vt 0.026072 0.059807
vt 0.353656 0.059807
vt 0.701402 0.016138
vt 0.973986 0.016138
vt 0.973986 0.076924
vt 0.701402 0.076924
vt 0.973986 0.349508
vt 0.701402 0.349508
vt 0.701402 0.076924
vt 0.973986 0.076924
vt 0.973986 0.016139
vt 0.701402 0.016139
vt 0.366221 0.345983
vt 0.693805 0.345983
vt 0.693805 0.018399
vt 0.366221 0.018399
vt 0.701402 0.016138
vt 0.973985 0.016138
vt 0.973985 0.076924
vt 0.701402 0.076924
vt 0.973985 0.016138
vt 0.701402 0.016138
vt 0.701402 0.076924
vt 0.973985 0.076924
vt 0.079754 0.355831
vt 0.069508 0.394282
vt 0.077187 0.393988
vt 0.087434 0.355538
vt 0.054805 0.360779
vt 0.114449 0.341425
vt 0.114449 0.443060
vt 0.054805 0.462413
vt 0.087647 0.355495
vt 0.077400 0.393946
vt 0.069721 0.394239
vt 0.079967 0.355788
vt 0.156180 0.762813
vt 0.156273 0.852603
vt 0.003268 0.852761
vt 0.003175 0.762971
vt 0.111169 0.422132
vt 0.065961 0.375145
vt 0.060319 0.379007
vt 0.105526 0.425994
vt 0.097663 0.445491
vt 0.104866 0.442812
vt 0.080635 0.411248
vt 0.073431 0.413928
vt 0.114992 0.360779
vt 0.114992 0.462413
vt 0.055349 0.443060
vt 0.055349 0.341425
vt 0.105079 0.442769
vt 0.097876 0.445449
vt 0.073644 0.413885
vt 0.080848 0.411205
vt 0.156417 0.999150
vt 0.003412 0.999308
vt 0.003320 0.903152
vt 0.156325 0.902994
vt 0.111169 0.422132
vt 0.105526 0.425994
vt 0.060319 0.379007
vt 0.065961 0.375145
vt 0.064837 0.398780
vt 0.067185 0.410538
vt 0.071679 0.409640
vt 0.069330 0.397883
vt 0.029752 0.332103
vt 0.049783 0.332103
vt 0.049783 0.433738
vt 0.029752 0.433738
vt 0.069544 0.397840
vt 0.071892 0.409597
vt 0.067398 0.410495
vt 0.065049 0.398738
vt 0.156283 0.862581
vt 0.156314 0.892737
vt 0.003309 0.892895
vt 0.003278 0.862738
vt 0.797456 0.698830
vt 0.877343 0.672737
vt 0.877343 0.540158
vt 0.797456 0.566251
vt 0.583560 0.555624
vt 0.664569 0.529230
vt 0.670435 0.557818
vt 0.586327 0.560559
vt 0.670799 0.691072
vt 0.586360 0.700323
vt 0.586327 0.560559
vt 0.670435 0.557818
vt 0.664569 0.529230
vt 0.583560 0.555624
vt 0.789305 0.700043
vt 0.795888 0.696285
vt 0.795888 0.555343
vt 0.789305 0.560278
vt 0.998953 0.698564
vt 0.998953 0.565986
vt 0.919237 0.540017
vt 0.919237 0.672596
vt 0.795888 0.555343
vt 0.789305 0.560279
vt 0.715313 0.557585
vt 0.716793 0.528997
vt 0.789305 0.700043
vt 0.714603 0.688494
vt 0.789305 0.560279
vt 0.795888 0.555343
vt 0.716793 0.528997
vt 0.715313 0.557585
vt 0.789305 0.700043
vt 0.789305 0.560278
vt 0.795888 0.555343
vt 0.795888 0.696285
vt 0.683601 0.531403
vt 0.683530 0.677688
vt 0.882777 0.659379
vt 0.882777 0.526801
vt 0.673576 0.513802
vt 0.683601 0.531403
vt 0.673576 0.513802
vt 0.689775 0.521605
vt 0.689892 0.513802
vt 0.898150 0.659123
vt 0.898150 0.526545
vt 0.689892 0.513802
vt 0.689775 0.521605
vt 0.689725 0.667800
vt 0.695695 0.677511
vt 0.695826 0.531226
vt 0.703666 0.513802
vt 0.695826 0.531226
vt 0.911129 0.526666
vt 0.911129 0.659245
vt 0.703666 0.513802
vt 0.026072 0.024159
vt 0.353656 0.024159
vt 0.353656 0.059808
vt 0.026072 0.059808
vt 0.366221 0.018399
vt 0.693805 0.018399
vt 0.693805 0.345983
vt 0.366221 0.345983
vt 0.026072 0.059808
vt 0.353656 0.059808
vt 0.353656 0.024159
vt 0.026072 0.024159
vt 0.366221 0.345983
vt 0.693805 0.345983
vt 0.693805 0.018399
vt 0.366221 0.018399
vt 0.026072 0.024159
vt 0.353656 0.024159
vt 0.353656 0.059807
vt 0.026072 0.059807
vt 0.353656 0.024159
vt 0.026072 0.024159
vt 0.026072 0.059807
vt 0.353656 0.059807
vt 0.154564 0.029123
vt 0.225163 0.029123
vt 0.225163 0.278213
vt 0.154564 0.278213
vt 0.052362 0.083110
vt 0.129125 0.083110
vt 0.129125 0.151660
vt 0.052362 0.151660
vt 0.154564 0.278212
vt 0.225163 0.278212
vt 0.225163 0.029123
vt 0.154564 0.029123
vt 0.052362 0.151660
vt 0.129125 0.151660
vt 0.129125 0.083110
vt 0.052362 0.083110
vt 0.154564 0.029123
vt 0.225163 0.029123
vt 0.225163 0.278212
vt 0.154564 0.278212
vt 0.225163 0.029123
vt 0.154564 0.029123
vt 0.154564 0.278212
vt 0.225163 0.278212
vn 0.000000 -1.000000 0.000000
vn 0.000000 -1.000000 0.000000
vn 0.000000 -1.000000 0.000000
vn 0.000000 -1.000000 0.000000
vn 0.000000 0.000000 1.000000
vn 0.000000 0.000000 1.000000
vn 0.000000 0.000000 1.000000
vn 0.000000 0.000000 1.000000
vn 0.000000 1.000000 0.000000
vn 0.000000 1.000000 0.000000
vn 0.000000 1.000000 0.000000
vn 0.000000 1.000000 0.000000
vn 0.000000 0.000000 -1.000000
vn 0.000000 0.000000 -1.000000
vn 0.000000 0.000000 -1.000000
vn 0.000000 0.000000 -1.000000
vn 1.000000 0.000000 0.000000
vn 1.000000 0.000000 0.000000
vn 1.000000 0.000000 0.000000
vn 1.000000 0.000000 0.000000
vn -1.000000 0.000000 0.000000
vn -1.000000 0.000000 0.000000
vn -1.000000 0.000000 0.000000
vn -1.000000 0.000000 0.000000
vn 0.000000 -1.000000 0.000000
vn 0.000000 -1.000000 0.000000
vn 0.000000 -1.000000 0.000000
vn 0.000000 -1.000000 0.000000
vn 0.000000 0.000000 -1.000000
vn 0.000000 0.000000 -1.000000
vn 0.000000 0.000000 -1.000000
vn 0.000000 0.000000 -1.000000
vn 0.000000 1.000000 -0.000000
vn 0.000000 1.000000 -0.000000
vn 0.000000 1.000000 -0.000000
vn 0.000000 1.000000 -0.000000
vn 0.000000 0.000000 1.000000
vn 0.000000 0.000000 1.000000
vn 0.000000 0.000000 1.000000
vn 0.000000 0.000000 1.000000
vn -1.000000 0.000000 0.000000
vn -1.000000 0.000000 0.000000
vn -1.000000 0.000000 0.000000
vn -1.000000 0.000000 0.000000
vn 1.000000 0.000000 -0.000000
vn 1.000000 0.000000 -0.000000
vn 1.000000 0.000000 -0.000000
vn 1.000000 0.000000 -0.000000
vn 0.000000 0.000000 1.000000
vn 0.000000 0.000000 1.000000
vn 0.000000 0.000000 1.000000
vn 0.000000 0.000000 1.000000
vn 0.000000 1.000000 -0.000000
vn 0.000000 1.000000 -0.000000
vn 0.000000 1.000000 -0.000000
vn 0.000000 1.000000 -0.000000
vn 0.000000 0.000000 -1.000000
vn 0.000000 0.000000 -1.000000
vn 0.000000 0.000000 -1.000000
vn 0.000000 0.000000 -1.000000
vn 0.000000 -1.000000 0.000000
vn 0.000000 -1.000000 0.000000
vn 0.000000 -1.000000 0.000000
vn 0.000000 -1.000000 0.000000
vn 1.000000 -0.000000 -0.000001
vn 1.000000 -0.000000 -0.000001
vn 1.000000 -0.000000 -0.000001
vn 1.000000 -0.000000 -0.000001
vn -1.000000 0.000000 0.000001
vn -1.000000 0.000000 0.000001
vn -1.000000 0.000000 0.000001
vn -1.000000 0.000000 0.000001
vn 0.000000 0.000000 1.000000
vn 0.000000 0.000000 1.000000
vn 0.000000 0.000000 1.000000
vn 0.000000 0.000000 1.000000
vn 0.000000 1.000000 0.000000
vn 0.000000 1.000000 0.000000
vn 0.000000 1.000000 0.000000
vn 0.000000 1.000000 0.000000
vn 0.000000 0.000000 -1.000000
vn 0.000000 0.000000 -1.000000
vn 0.000000 0.000000 -1.000000
vn 0.000000 0.000000 -1.000000
vn 0.000000 -1.000000 0.000000
vn 0.000000 -1.000000 0.000000
vn 0.000000 -1.000000 0.000000
vn 0.000000 -1.000000 0.000000
vn 1.000000 -0.000002 -0.000000
vn 1.000000 -0.000002 -0.000000
vn 1.000000 -0.000002 -0.000000
vn 1.000000 -0.000002 -0.000000
vn -1.000000 0.000002 0.000000
vn -1.000000 0.000002 0.000000
vn -1.000000 0.000002 0.000000
vn -1.000000 0.000002 0.000000
vn 0.000000 0.000000 1.000000
vn 0.000000 0.000000 1.000000
vn 0.000000 0.000000 1.000000
vn 0.000000 0.000000 1.000000
vn 0.000000 1.000000 0.000000
vn 0.000000 1.000000 0.000000
vn 0.000000 1.000000 0.000000
vn 0.000000 1.000000 0.000000
vn 0.000000 0.000000 -1.000000
vn 0.000000 0.000000 -1.000000
vn 0.000000 0.000000 -1.000000
vn 0.000000 0.000000 -1.000000
vn 0.000000 -1.000000 0.000000
vn 0.000000 -1.000000 0.000000
vn 0.000000 -1.000000 0.000000
vn 0.000000 -1.000000 0.000000
vn 1.000000 -0.000000 0.000000
vn 1.000000 -0.000000 0.000000
vn 1.000000 -0.000000 0.000000
vn 1.000000 -0.000000 0.000000
vn -1.000000 0.000001 0.000000
vn -1.000000 0.000001 0.000000
vn -1.000000 0.000001 0.000000
vn -1.000000 0.000001 0.000000
vn -0.000000 -0.776474 0.630149
vn -0.000000 -0.776474 0.630149
vn -0.000000 -0.776474 0.630149
vn -0.000000 -0.776474 0.630149
vn 0.270541 0.606651 0.747518
vn 0.270541 0.606651 0.747518
vn 0.270541 0.606651 0.747518
vn 0.270541 0.606651 0.747518
vn 0.000000 0.776473 -0.630151
vn -0.000000 0.776473 -0.630151
vn -0.000000 0.776473 -0.630151
vn 0.000000 0.776473 -0.630151
vn -0.270541 -0.606651 -0.747518
vn -0.318048 -0.597429 -0.736154
vn -0.318048 -0.597429 -0.736154
vn -0.270541 -0.606651 -0.747518
vn -0.962709 0.170481 0.210067
vn -0.962709 0.170481 0.210067
vn -0.962709 0.170481 0.210067
vn -0.962709 0.170481 0.210067
vn 0.000000 -0.776475 0.630149
vn 0.000000 -0.776475 0.630149
vn 0.000000 -0.776475 0.630149
vn 0.000000 -0.776475 0.630149
vn -0.270541 0.606651 0.747518
vn -0.270541 0.606651 0.747518
vn -0.270541 0.606651 0.747518
vn -0.270541 0.606651 0.747518
vn -0.000000 0.776472 -0.630151
vn -0.000000 0.776472 -0.630151
vn 0.000000 0.776472 -0.630151
vn 0.000000 0.776472 -0.630151
vn 0.270541 -0.606651 -0.747517
vn 0.270541 -0.606651 -0.747517
vn 0.310554 -0.598993 -0.738081
vn 0.310554 -0.598993 -0.738081
vn 0.962705 0.170490 0.210078
vn 0.962705 0.170490 0.210078
vn 0.962705 0.170490 0.210078
vn 0.962705 0.170490 0.210078
vn -0.000000 -0.776474 0.630149
vn 0.000000 -0.776474 0.630149
vn 0.000000 -0.776474 0.630149
vn -0.000000 -0.776474 0.630149
vn 0.000000 0.630150 0.776473
vn 0.000000 0.630150 0.776473
vn 0.000000 0.630150 0.776473
vn 0.000000 0.630150 0.776473
vn -0.000002 0.776473 -0.630151
vn 0.000001 0.776473 -0.630151
vn 0.000001 0.776473 -0.630151
vn -0.000001 0.776473 -0.630151
vn 0.000000 -0.630150 -0.776473
vn 0.000000 -0.630150 -0.776473
vn 0.000000 -0.630150 -0.776473
vn 0.000000 -0.630150 -0.776473
vn 0.904378 0.268906 0.331347
vn 0.904378 0.268906 0.331347
vn 0.904378 0.268906 0.331347
vn 0.904378 0.268906 0.331347
vn -0.665362 -0.470421 -0.579653
vn -0.665362 -0.470421 -0.579653
vn 0.565314 -0.519795 -0.640494
vn 0.565314 -0.519795 -0.640494
vn -0.823330 0.357649 0.440698
vn -0.823330 0.357649 0.440698
vn -0.823330 0.357649 0.440698
vn -0.823330 0.357649 0.440698
vn -0.272187 -0.606358 -0.747157
vn -0.371739 -0.584992 -0.720829
vn -0.371739 -0.584992 -0.720829
vn -0.272187 -0.606358 -0.747157
vn -0.000000 -0.776473 0.630151
vn 0.000000 -0.776473 0.630150
vn 0.000000 -0.776473 0.630151
vn -0.000000 -0.776473 0.630151
vn 0.134332 0.624439 0.769436
vn 0.250336 0.610085 0.751750
vn 0.250336 0.610085 0.751750
vn 0.134332 0.624439 0.769436
vn -0.000000 0.776474 -0.630150
vn -0.000000 0.776474 -0.630150
vn 0.000000 0.776474 -0.630150
vn -0.000000 0.776474 -0.630150
vn -0.838938 0.342945 0.422578
vn -0.838938 0.342945 0.422578
vn -0.838938 0.342945 0.422578
vn -0.838938 0.342945 0.422578
vn 0.271526 -0.606476 -0.747302
vn 0.271526 -0.606476 -0.747302
vn 0.361504 -0.587533 -0.723961
vn 0.361504 -0.587533 -0.723961
vn 0.000000 -0.776474 0.630149
vn 0.000000 -0.776474 0.630149
vn 0.000000 -0.776474 0.630149
vn 0.000000 -0.776474 0.630149
vn -0.138256 0.624099 0.769017
vn -0.138256 0.624099 0.769017
vn -0.258230 0.608778 0.750138
vn -0.258230 0.608778 0.750138
vn 0.000000 0.776473 -0.630150
vn 0.000000 0.776473 -0.630150
vn 0.000001 0.776473 -0.630150
vn 0.000000 0.776473 -0.630150
vn 0.535883 0.532030 0.655570
vn 0.535883 0.532030 0.655570
vn 0.535883 0.532030 0.655570
vn 0.535883 0.532030 0.655570
vn 0.789404 0.386833 0.476657
vn 0.789404 0.386833 0.476657
vn -0.492980 -0.548256 -0.675564
vn -0.492980 -0.548256 -0.675564
vn 0.000001 -0.776473 0.630150
vn 0.000001 -0.776473 0.630150
vn 0.000001 0.776473 -0.630150
vn 0.000000 0.776473 -0.630150
vn -0.000000 0.776474 -0.630149
vn -0.000000 0.776474 -0.630149
vn -0.004121 -0.630145 -0.776467
vn -0.004121 -0.630145 -0.776467
vn 0.000000 -0.776473 0.630150
vn 0.000000 -0.776473 0.630150
vn 0.012595 0.630100 0.776412
vn 0.012594 0.630100 0.776412
vn -0.795085 0.382185 0.470929
vn -0.795085 0.382185 0.470929
vn 0.000001 0.776474 -0.630150
vn 0.000001 0.776473 -0.630150
vn 0.484130 -0.551379 -0.679411
vn 0.484130 -0.551379 -0.679411
vn 0.000001 -0.776474 0.630150
vn 0.000001 -0.776473 0.630150
vn 0.000000 0.000000 1.000000
vn 0.000000 0.000000 1.000000
vn 0.000000 0.000000 1.000000
vn 0.000000 0.000000 1.000000
vn 0.000000 1.000000 -0.000000
vn 0.000000 1.000000 -0.000000
vn 0.000000 1.000000 -0.000000
vn 0.000000 1.000000 -0.000000
vn 0.000000 0.000000 -1.000000
vn 0.000000 0.000000 -1.000000
vn 0.000000 0.000000 -1.000000
vn 0.000000 0.000000 -1.000000
vn 0.000000 -1.000000 0.000000
vn 0.000000 -1.000000 0.000000
vn 0.000000 -1.000000 0.000000
vn 0.000000 -1.000000 0.000000
vn 1.000000 -0.000004 -0.000000
vn 1.000000 -0.000004 -0.000000
vn 1.000000 -0.000004 -0.000000
vn 1.000000 -0.000004 -0.000000
vn -1.000000 0.000004 0.000000
vn -1.000000 0.000004 0.000000
vn -1.000000 0.000004 0.000000
vn -1.000000 0.000004 0.000000
vn 0.000000 0.000000 1.000000
vn 0.000000 0.000000 1.000000
vn 0.000000 0.000000 1.000000
vn 0.000000 0.000000 1.000000
vn 0.000000 1.000000 -0.000000
vn 0.000000 1.000000 -0.000000
vn 0.000000 1.000000 -0.000000
vn 0.000000 1.000000 -0.000000
vn 0.000000 0.000000 -1.000000
vn 0.000000 0.000000 -1.000000
vn 0.000000 0.000000 -1.000000
vn 0.000000 0.000000 -1.000000
vn 0.000000 -1.000000 0.000000
vn 0.000000 -1.000000 0.000000
vn 0.000000 -1.000000 0.000000
vn 0.000000 -1.000000 0.000000
vn 1.000000 -0.000000 -0.000001
vn 1.000000 -0.000000 -0.000001
vn 1.000000 -0.000000 -0.000001
vn 1.000000 -0.000000 -0.000001
vn -1.000000 0.000000 0.000001
vn -1.000000 0.000000 0.000001
vn -1.000000 0.000000 0.000001
vn -1.000000 0.000000 0.000001
s off
g polySurface107
usemtl initialShadingGroup
f 1/1/1 2/2/2 4/3/3 3/4/4
f 3/4/5 4/3/6 6/5/7 5/6/8
f 5/7/9 6/8/10 8/9/11 7/10/12
f 7/11/13 8/12/14 2/13/15 1/14/16
f 2/15/17 8/16/18 6/5/19 4/3/20
f 7/17/21 1/18/22 3/4/23 5/6/24
f 9/19/25 12/22/26 11/21/27 10/20/28
f 10/20/29 11/21/30 14/24/31 13/23/32
f 13/25/33 14/28/34 16/27/35 15/26/36
f 15/29/37 16/32/38 12/31/39 9/30/40
f 12/33/41 16/34/42 14/24/43 11/21/44
f 15/35/45 9/36/46 10/20/47 13/23/48
f 17/37/49 18/38/50 20/39/51 19/40/52
f 19/41/53 20/42/54 22/43/55 21/44/56
f 21/45/57 22/46/58 24/47/59 23/48/60
f 23/49/61 24/50/62 18/51/63 17/52/64
f 18/53/65 24/54/66 22/55/67 20/56/68
f 23/57/69 17/58/70 19/59/71 21/60/72
f 25/61/73 26/62/74 28/63/75 27/64/76
f 27/65/77 28/66/78 30/67/79 29/68/80
f 29/69/81 30/70/82 32/71/83 31/72/84
f 31/73/85 32/74/86 26/75/87 25/76/88
f 26/77/89 32/78/90 30/79/91 28/80/92
f 31/81/93 25/82/94 27/83/95 29/84/96
f 33/85/97 34/86/98 36/87/99 35/88/100
f 35/88/101 36/87/102 38/89/103 37/90/104
f 37/91/105 38/92/106 40/93/107 39/94/108
f 39/95/109 40/96/110 34/97/111 33/98/112
f 34/99/113 40/100/114 38/101/115 36/102/116
f 39/103/117 33/104/118 35/105/119 37/106/120
s 1
f 41/107/121 42/108/122 44/109/123 43/110/124
s off
f 43/111/125 44/112/126 46/113/127 45/114/128
s 2
f 45/115/129 46/116/130 48/117/131 47/118/132
s 3
f 47/119/133 48/120/134 42/121/135 41/122/136
s off
f 47/123/137 41/124/138 43/125/139 45/126/140
s 1
f 49/127/141 52/128/142 51/129/143 50/130/144
s off
f 52/131/145 54/132/146 53/133/147 51/134/148
s 2
f 54/135/149 56/136/150 55/137/151 53/138/152
s 6
f 56/139/153 49/140/154 50/141/155 55/142/156
s off
f 56/143/157 54/144/158 52/145/159 49/146/160
s 1
f 57/147/161 58/148/162 60/149/163 59/150/164
s off
f 59/151/165 60/152/166 62/153/167 61/154/168
s 2
f 61/155/169 62/156/170 64/157/171 63/158/172
s off
f 63/159/173 64/160/174 58/161/175 57/162/176
f 46/116/177 44/109/178 59/150/179 61/155/180
s 3
f 42/121/135 48/120/134 63/159/181 57/162/182
s 1
f 44/109/123 42/108/122 57/147/161 59/150/164
s 2
f 48/117/131 46/116/130 61/155/169 63/158/172
f 53/138/152 55/137/151 64/157/171 62/156/170
s 6
f 55/142/156 50/141/155 58/161/183 64/160/184
s off
f 51/134/185 53/133/186 62/153/187 60/152/188
s 1
f 50/130/144 51/129/143 60/149/163 58/148/162
s 7
f 65/163/189 66/164/190 68/165/191 67/166/192
s 8
f 67/167/193 68/168/194 70/169/195 69/170/196
s 9
f 69/170/197 70/169/198 72/171/199 71/172/200
s 10
f 71/173/201 72/174/202 66/175/203 65/176/204
s off
f 71/177/205 65/178/206 67/179/207 69/180/208
s 7
f 73/181/209 76/182/210 75/183/211 74/184/212
s 8
f 76/185/213 78/186/214 77/187/215 75/188/216
s 9
f 78/186/217 80/189/218 79/190/219 77/187/220
s 10
f 80/191/221 73/192/222 74/193/223 79/194/224
s off
f 80/195/225 78/196/226 76/197/227 73/198/228
s 9
f 72/171/199 70/169/198 84/199/229 81/200/230
s 7
f 68/165/191 66/164/190 82/201/231 83/202/232
s 8
f 70/169/195 68/168/194 83/203/233 84/199/234
s 10
f 66/175/203 72/174/202 81/204/235 82/205/236
f 82/205/236 81/204/235 90/206/237 91/207/238
s 7
f 83/202/232 82/201/231 91/208/239 92/209/240
s 8
f 84/199/234 83/203/233 92/210/241 89/211/242
s 9
f 81/200/230 84/199/229 89/211/243 90/212/244
f 86/213/245 85/214/246 77/187/220 79/190/219
s 10
f 87/215/247 86/216/248 79/194/224 74/193/223
s 7
f 88/217/249 87/218/250 74/184/212 75/183/211
s 8
f 85/214/251 88/219/252 75/188/216 77/187/215
s 9
f 90/212/244 89/211/243 85/214/246 86/213/245
s 10
f 91/207/238 90/206/237 86/216/248 87/215/247
s 7
f 92/209/240 91/208/239 87/218/250 88/217/249
s 8
f 89/211/242 92/210/241 88/219/252 85/214/251
s off
f 93/220/253 94/221/254 96/222/255 95/223/256
f 95/224/257 96/225/258 98/226/259 97/227/260
f 97/228/261 98/229/262 100/230/263 99/231/264
f 99/232/265 100/233/266 94/234/267 93/235/268
f 94/236/269 100/237/270 98/238/271 96/239/272
f 99/240/273 93/241/274 95/242/275 97/243/276
f 101/244/277 102/245/278 104/246/279 103/247/280
f 103/248/281 104/249/282 106/250/283 105/251/284
f 105/252/285 106/253/286 108/254/287 107/255/288
f 107/256/289 108/257/290 102/258/291 101/259/292
f 102/260/293 108/261/294 106/262/295 104/263/296
f 107/264/297 101/265/298 103/266/299 105/267/300
