# This file uses centimeters as units for non-parametric coordinates.

mtllib Log.mtl
g default
v -1.682091 -0.235927 0.268181
v 1.682091 -0.235927 0.229867
v -1.682091 0.238063 0.268181
v 1.682091 0.238063 0.229867
v -1.682091 0.238063 -0.229867
v 1.682091 0.238063 -0.268181
v -1.682091 -0.235927 -0.229867
v 1.682091 -0.235927 -0.268181
v -0.866244 -0.234791 0.145418
v -0.866244 0.148990 0.145418
v -0.866244 0.148990 -0.257842
v -0.866244 -0.234791 -0.257842
v 1.005956 -0.234791 0.182473
v 1.005956 0.148990 0.182473
v 1.005956 0.148990 -0.220787
v 1.005956 -0.234791 -0.220787
v 0.060205 -0.238063 0.139475
v 0.060205 0.040344 0.139475
v 0.060205 0.040344 -0.153063
v 0.060205 -0.238063 -0.153063
vt 0.373410 0.339831
vt 0.511583 0.340152
vt 0.511583 0.448401
vt 0.373410 0.473525
vt 0.138943 0.456798
vt 0.287586 0.496267
vt 0.287586 0.625916
vt 0.138943 0.616922
vt 0.373410 0.473525
vt 0.511583 0.448401
vt 0.511583 0.340152
vt 0.373410 0.339831
vt 0.138943 0.616922
vt 0.287586 0.625916
vt 0.287586 0.496267
vt 0.138943 0.456798
vt 0.517210 0.092535
vt 0.662218 0.092535
vt 0.662218 0.239982
vt 0.517210 0.239982
vt 0.662218 0.092535
vt 0.517210 0.092535
vt 0.517210 0.239982
vt 0.662218 0.239982
vt 0.668488 0.339229
vt 0.668488 0.417756
vt 0.456380 0.498177
vt 0.456380 0.592229
vt 0.668488 0.417756
vt 0.668488 0.339229
vt 0.456380 0.592229
vt 0.456380 0.498177
vt 0.828661 0.340152
vt 0.943172 0.339831
vt 0.943172 0.473525
vt 0.828661 0.448401
vt 0.628691 0.614003
vt 0.628691 0.484353
vt 0.751879 0.469116
vt 0.751879 0.629240
vt 0.828661 0.340152
vt 0.828661 0.448401
vt 0.943172 0.473525
vt 0.943172 0.339831
vt 0.628691 0.484353
vt 0.628691 0.614003
vt 0.751879 0.629240
vt 0.751879 0.469116
vn 0.148797 0.000000 0.988868
vn 0.082843 0.000000 0.996563
vn 0.087947 0.000000 0.996125
vn 0.148797 0.000000 0.988868
vn 0.108533 0.994093 0.000000
vn 0.112060 0.993702 0.000000
vn 0.112143 0.993692 0.000000
vn 0.108533 0.994093 0.000000
vn -0.034270 0.000000 -0.999413
vn 0.029312 0.000000 -0.999570
vn 0.034588 0.000000 -0.999402
vn -0.034270 0.000000 -0.999413
vn 0.001393 -0.999999 0.000000
vn -0.000844 -1.000000 0.000000
vn -0.000792 -1.000000 0.000000
vn 0.001393 -0.999999 0.000000
vn 1.000000 0.000000 0.000000
vn 1.000000 0.000000 0.000000
vn 1.000000 0.000000 0.000000
vn 1.000000 0.000000 0.000000
vn -1.000000 0.000000 0.000000
vn -1.000000 0.000000 0.000000
vn -1.000000 0.000000 0.000000
vn -1.000000 0.000000 0.000000
vn -0.019789 0.000000 0.999804
vn -0.019769 0.000000 0.999805
vn -0.001409 0.999999 0.000000
vn 0.001426 0.999999 0.000000
vn 0.019841 0.000000 -0.999803
vn 0.019787 0.000000 -0.999804
vn -0.000043 -1.000000 0.000000
vn 0.000043 -1.000000 0.000000
vn -0.057206 0.000000 0.998362
vn -0.069923 0.000000 0.997552
vn -0.069923 0.000000 0.997552
vn -0.058165 0.000000 0.998307
vn -0.122434 0.992477 0.000000
vn -0.122363 0.992485 0.000000
vn -0.130610 0.991434 0.000000
vn -0.130610 0.991434 0.000000
vn -0.070704 0.000000 -0.997497
vn -0.070645 0.000000 -0.997501
vn -0.069923 0.000000 -0.997552
vn -0.069923 0.000000 -0.997552
vn 0.000895 -1.000000 0.000000
vn 0.000872 -1.000000 0.000000
vn -0.001681 -0.999999 0.000000
vn -0.001681 -0.999999 0.000000
s 1
g polySurface54
usemtl Rock_3:lambert4SG
f 1/1/1 9/2/2 10/3/3 3/4/4
s 2
f 3/5/5 10/6/6 11/7/7 5/8/8
s 3
f 5/9/9 11/10/10 12/11/11 7/12/12
s 4
f 7/13/13 12/14/14 9/15/15 1/16/16
s off
f 2/17/17 8/18/18 6/19/19 4/20/20
f 7/21/21 1/22/22 3/23/23 5/24/24
s 1
f 9/2/2 17/25/25 18/26/26 10/3/3
s 2
f 11/7/7 10/6/6 18/27/27 19/28/28
s 3
f 12/11/11 11/10/10 19/29/29 20/30/30
s 4
f 9/15/15 12/14/14 20/31/31 17/32/32
s 1
f 13/33/33 2/34/34 4/35/35 14/36/36
s 2
f 15/37/37 14/38/38 4/39/39 6/40/40
s 3
f 16/41/41 15/42/42 6/43/43 8/44/44
s 4
f 13/45/45 16/46/46 8/47/47 2/48/48
s 1
f 17/25/25 13/33/33 14/36/36 18/26/26
s 2
f 19/28/28 18/27/27 14/38/38 15/37/37
s 3
f 20/30/30 19/29/29 15/42/42 16/41/41
s 4
f 17/32/32 20/31/31 16/46/46 13/45/45
