# This file uses centimeters as units for non-parametric coordinates.

mtllib Rock3.mtl
g default
v -0.835346 -0.286786 0.700815
v 0.777627 -0.288936 0.445570
v -0.754582 0.183916 0.561682
v 0.678475 0.288936 0.356898
v -0.754582 0.183916 -0.387607
v 0.678475 0.288936 -0.360567
v -0.835346 -0.286786 -0.459834
v 0.777627 -0.288936 -0.449239
v -0.976542 0.183916 0.113079
v -1.088857 -0.286786 0.112026
v 1.088857 -0.288936 0.067545
v 0.950970 0.288936 0.068839
v -0.004514 0.288936 -0.580832
v -0.002451 -0.288936 -0.700815
v 0.004024 -0.288936 -0.280942
v -0.002451 -0.288936 0.444965
v -0.004514 0.288936 0.324982
v 0.004024 0.288936 -0.280942
v -0.002451 0.016664 0.444965
v -0.835346 -0.037861 0.700815
v -1.088857 -0.037861 0.112026
v -0.835346 -0.037861 -0.459834
v -0.002451 0.016664 -0.700815
v 0.777627 0.016664 -0.449239
v 1.088857 0.016664 0.067545
v 0.777627 0.016664 0.445570
vt 0.067747 0.012847
vt 0.067747 0.012847
vt 0.245436 0.075402
vt 0.245436 0.075402
vt 0.246818 0.252886
vt 0.037625 0.156548
vt 0.084977 0.046865
vt 0.244996 0.104738
vt 0.067747 0.296625
vt 0.067747 0.296625
vt 0.245460 0.346905
vt 0.245460 0.346905
vt 0.013663 0.156806
vt 0.246818 0.252886
vt 0.411857 0.075254
vt 0.478255 0.167681
vt 0.478255 0.167681
vt 0.411857 0.075254
vt 0.013663 0.156806
vt 0.411857 0.294034
vt 0.411857 0.294034
vt 0.084977 0.278965
vt 0.244996 0.326209
vt 0.448838 0.167365
vt 0.390704 0.096934
vt 0.390704 0.272354
vn 0.276109 0.161403 0.947477
vn 0.293640 0.000000 0.955916
vn 0.148953 0.000000 0.988844
vn 0.132788 0.198700 0.971023
vn -0.067248 0.997729 -0.003851
vn -0.117321 0.993060 0.008176
vn -0.112284 0.993416 0.022725
vn -0.067196 0.997647 0.013600
vn -0.277930 0.000000 -0.960601
vn -0.284231 0.163903 -0.944642
vn 0.015686 0.192818 -0.981109
vn 0.021686 0.000000 -0.999765
vn -0.002099 -0.999998 0.000394
vn -0.002185 -0.999998 0.000136
vn -0.001217 -0.999999 -0.000059
vn -0.001257 -0.999999 0.000236
vn 0.772014 0.000000 0.635605
vn 1.000000 0.000000 0.000000
vn 0.976217 0.216687 -0.006827
vn 0.749562 0.188615 0.634493
vn -1.000000 0.000000 0.000000
vn -0.918481 0.000000 0.395465
vn -0.897262 0.195744 0.395733
vn -0.975311 0.220836 -0.000224
vn -0.914196 0.000000 -0.405272
vn -0.896221 0.197325 -0.397304
vn -0.002432 -0.999997 -0.000606
vn -0.001317 -0.999999 -0.000328
vn 0.856644 0.000000 -0.515909
vn 0.837616 0.196195 -0.509810
vn -0.132181 0.990599 -0.035237
vn -0.076261 0.996881 -0.020330
vn 0.302284 0.173392 -0.937315
vn 0.306934 0.000000 -0.951731
vn 0.000000 -1.000000 -0.000000
vn 0.000000 -1.000000 -0.000000
vn 0.000000 -1.000000 0.000000
vn -0.009186 0.148757 0.988831
vn -0.000776 0.000000 1.000000
vn 0.000000 1.000000 -0.000000
vn 0.000000 1.000000 -0.000000
vn 0.000000 1.000000 0.000000
vn 0.230072 0.423013 0.876429
vn 0.098175 0.390144 0.915505
vn -0.804745 0.465125 0.368841
vn -0.878823 0.477139 0.002852
vn -0.828988 0.421573 -0.367499
vn -0.279998 0.386486 -0.878766
vn 0.018972 0.403860 -0.914624
vn 0.282813 0.388586 -0.876937
vn 0.874802 0.484294 0.013418
vn 0.774010 0.415812 -0.477504
vn 0.690118 0.397452 0.604788
vn -0.020781 0.354358 0.934879
s 1
g polySurface55
usemtl Rock_3:lambert4SG
f 20/1/1 1/2/2 16/3/3 19/4/4
s 2
f 18/5/5 9/6/6 3/7/7 17/8/8
s 3
f 7/9/9 22/10/10 23/11/11 14/12/12
s 4
f 1/2/13 10/13/14 15/14/15 16/3/16
s 5
f 2/15/17 11/16/18 25/17/19 26/18/20
s 6
f 10/13/21 1/2/22 20/1/23 21/19/24
f 7/9/25 10/13/21 21/19/24 22/10/26
s 4
f 15/14/15 10/13/14 7/9/27 14/12/28
s 5
f 25/17/19 11/16/18 8/20/29 24/21/30
s 2
f 5/22/31 9/6/6 18/5/5 13/23/32
s 3
f 14/12/12 23/11/11 24/21/33 8/20/34
s 4
f 11/16/35 15/14/15 14/12/28 8/20/36
f 16/3/16 15/14/15 11/16/35 2/15/37
s 1
f 26/18/38 19/4/4 16/3/3 2/15/39
s 2
f 12/24/40 18/5/5 17/8/8 4/25/41
f 13/23/32 18/5/5 12/24/40 6/26/42
s 1
f 3/7/43 20/1/1 19/4/4 17/8/44
s 6
f 21/19/24 20/1/23 3/7/45 9/6/46
f 22/10/26 21/19/24 9/6/46 5/22/47
s 3
f 23/11/11 22/10/10 5/22/48 13/23/49
f 24/21/33 23/11/11 13/23/49 6/26/50
s 5
f 12/24/51 25/17/19 24/21/30 6/26/52
f 26/18/20 25/17/19 12/24/51 4/25/53
s 1
f 17/8/44 19/4/4 26/18/38 4/25/54
