# This file uses centimeters as units for non-parametric coordinates.

mtllib Rock1.mtl
g default
v -0.835346 -0.286786 0.965862
v 0.777627 -0.288936 0.710617
v -0.754583 0.183916 0.893634
v 0.678475 0.288936 0.621945
v -0.754583 0.183916 -0.122560
v 0.678475 0.288936 -0.625614
v -0.835346 -0.286786 -0.194787
v 0.777627 -0.288936 -0.714286
v -0.976542 0.183916 0.378126
v -1.088858 -0.286786 0.377073
v 1.088858 -0.288936 -0.012226
v 0.950970 0.288936 -0.010933
v -0.004515 0.288936 -0.845879
v -0.002452 -0.288936 -0.965862
v 0.004024 -0.288936 -0.015895
v -0.002452 -0.288936 0.962193
v -0.004515 0.288936 0.842210
v 0.004024 0.288936 -0.015895
v -0.002452 0.016664 0.962193
v -0.835346 -0.037861 0.965862
v -1.088858 -0.037861 0.377073
v -0.835346 -0.037861 -0.194787
v -0.002452 0.016664 -0.965862
v 0.777627 0.016664 -0.714286
v 1.088858 0.016664 -0.012226
v 0.777627 0.016664 0.710617
vt 0.577011 0.640427
vt 0.577011 0.640427
vt 0.754808 0.641093
vt 0.754808 0.641093
vt 0.756190 0.818495
vt 0.546870 0.747029
vt 0.594251 0.653528
vt 0.754368 0.662855
vt 0.577011 0.850942
vt 0.577011 0.850942
vt 0.754808 0.990796
vt 0.754808 0.990796
vt 0.522894 0.747220
vt 0.756190 0.818495
vt 0.921330 0.686723
vt 0.987768 0.817829
vt 0.987768 0.817829
vt 0.921330 0.686723
vt 0.522894 0.747220
vt 0.921330 0.945167
vt 0.921330 0.945167
vt 0.594251 0.837841
vt 0.754368 0.969034
vt 0.958333 0.817595
vt 0.900164 0.702806
vt 0.900164 0.929084
vn 0.001070 0.144289 0.989535
vn 0.004405 0.000000 0.999990
vn 0.163867 0.000000 0.986483
vn 0.157003 0.183309 0.970437
vn -0.061662 0.998094 -0.002379
vn -0.121313 0.992594 0.006314
vn -0.115893 0.993099 0.018006
vn -0.067448 0.997668 0.010479
vn -0.679349 0.000000 -0.733815
vn -0.681681 0.169130 -0.711833
vn -0.272211 0.199020 -0.941431
vn -0.279710 0.000000 -0.960085
vn -0.002162 -0.999998 0.000341
vn -0.002260 -0.999997 0.000109
vn -0.001122 -0.999999 -0.000040
vn -0.001211 -0.999999 0.000191
vn 0.918481 0.000000 0.395465
vn 1.000000 0.000000 0.000000
vn 0.977625 0.210355 -0.000222
vn 0.900607 0.196321 0.387770
vn -1.000000 0.000000 0.000000
vn -0.918481 0.000000 0.395465
vn -0.900607 0.196321 0.387769
vn -0.977625 0.210355 -0.000222
vn -0.914196 0.000000 -0.405272
vn -0.896221 0.197325 -0.397304
vn -0.002475 -0.999997 -0.000402
vn -0.000913 -1.000000 -0.000148
vn 0.914196 0.000000 -0.405273
vn 0.896221 0.197324 -0.397304
vn -0.134129 0.990730 -0.021512
vn -0.050209 0.998706 -0.008053
vn 0.302284 0.173392 -0.937315
vn 0.306933 0.000000 -0.951731
vn 0.000000 -1.000000 -0.000000
vn 0.000000 -1.000000 0.000000
vn 0.000000 -1.000000 -0.000000
vn 0.302284 0.173392 0.937315
vn 0.306933 0.000000 0.951731
vn 0.000000 1.000000 -0.000000
vn 0.000000 1.000000 0.000000
vn 0.000000 1.000000 -0.000000
vn -0.004174 0.363151 0.931721
vn 0.159999 0.381603 0.910373
vn -0.833393 0.420354 0.358829
vn -0.892120 0.451798 0.000377
vn -0.828988 0.421573 -0.367499
vn -0.659040 0.361561 -0.659499
vn -0.292461 0.424857 -0.856717
vn 0.282812 0.388586 -0.876937
vn 0.892121 0.451798 0.000377
vn 0.828988 0.421573 -0.367499
vn 0.833393 0.420353 0.358830
vn 0.282812 0.388586 0.876937
s 1
g polySurface52 polySurface50
usemtl Rock_3:lambert4SG
f 20/1/1 1/2/2 16/3/3 19/4/4
s 2
f 18/5/5 9/6/6 3/7/7 17/8/8
s 3
f 7/9/9 22/10/10 23/11/11 14/12/12
s 4
f 1/2/13 10/13/14 15/14/15 16/3/16
s 5
f 2/15/17 11/16/18 25/17/19 26/18/20
s 6
f 10/13/21 1/2/22 20/1/23 21/19/24
f 7/9/25 10/13/21 21/19/24 22/10/26
s 4
f 15/14/15 10/13/14 7/9/27 14/12/28
s 5
f 25/17/19 11/16/18 8/20/29 24/21/30
s 2
f 5/22/31 9/6/6 18/5/5 13/23/32
s 3
f 14/12/12 23/11/11 24/21/33 8/20/34
s 4
f 11/16/35 15/14/15 14/12/28 8/20/36
f 16/3/16 15/14/15 11/16/35 2/15/37
s 1
f 26/18/38 19/4/4 16/3/3 2/15/39
s 2
f 12/24/40 18/5/5 17/8/8 4/25/41
f 13/23/32 18/5/5 12/24/40 6/26/42
s 1
f 3/7/43 20/1/1 19/4/4 17/8/44
s 6
f 21/19/24 20/1/23 3/7/45 9/6/46
f 22/10/26 21/19/24 9/6/46 5/22/47
s 3
f 23/11/11 22/10/10 5/22/48 13/23/49
f 24/21/33 23/11/11 13/23/49 6/26/50
s 5
f 12/24/51 25/17/19 24/21/30 6/26/52
f 26/18/20 25/17/19 12/24/51 4/25/53
s 1
f 17/8/44 19/4/4 26/18/38 4/25/54
